<?xml version="1.0" encoding="utf-8"?>
<!-- Generator: Adobe Illustrator 16.0.0, SVG Export Plug-In . SVG Version: 6.00 Build 0)  -->
<!DOCTYPE svg PUBLIC "-//W3C//DTD SVG 1.1//EN" "http://www.w3.org/Graphics/SVG/1.1/DTD/svg11.dtd">
<svg version="1.1" id="landmarks-continents" xmlns="http://www.w3.org/2000/svg" xmlns:xlink="http://www.w3.org/1999/xlink"
	 x="0px" y="0px" width="400px" height="220px" viewBox="0 0 400 220" enable-background="new 0 0 400 220" xml:space="preserve">
<g id="africa">
	<path fill="#DDDDDD" d="M204.8,74.655l0.706-0.309l0.915,0.557l0.41,0.068l0.54,0.084l-0.168,0.052l-0.067,0.135l-0.17,0.507
		l0.085,0.982l0.254,0.865l0.067,0.559l0.169,0.084l-0.253,0.102l-0.765,0.339l-0.339,0.763l0.682,0.152l0.286-0.17l0.169,0.102
		l0.915,1.084l1.576,0.305l1.389,0.237l0.951,0.442l0.557,0.694l1.256,1.033l2.455,0.882l0.935,0.474l1.015-1.373l0.356-1.746
		l2.627-0.608l0.457,0.169l0.423,0.338l1.864,0.678l0.644,0.357l0.543,0.271l2.168,0.407l1.103,0.338l1.101,0.254l0.692-0.237
		l3.205-0.321l0.324,1.474l0.286,1.272l0.152,0.491l0.593,1.067l0.645,1.016l0.338,0.73l0.287,0.626l0.355,0.848l0.866,1.643
		l0.931,1.391l0.188,0.405l0.747,1.898l0.813,0.643l0.101,0.423l0.254,0.694l0.257,1.427l1.237,2.93l1.539,3.083l0.425,1.017
		l0.356-0.051l0.508-0.119l0.019,0.255l-0.154,0.44l0.307,0.337l0.441,0.12l0.524,0.339l0.593,0.628l0.456,0.507l0.423,0.356
		l0.984,1.136l0.236,1.661l-0.39,0.202l0.404,0.103l0.712,0.56l2.203,0.745l1.086-0.221l1.031-0.271l0.83-0.254l0.78-0.12
		l0.66-0.118l2.188-0.745l0.996,0.289l0.139,1.562l-0.171,0.422l-0.337,0.678l-0.423,1.439l-0.424,1.018l-0.118,0.236l-1.237,2.645
		l-0.595,1.219l-0.592,1.067l-3.626,3.966l-4.405,4.777l-1.747,1.866l-0.439,0.559l-1.086,2.49l-0.727,2.05l0.492,0.829l0.307,0.881
		l0.307,0.73l0.252,0.103l-0.338,0.285l-0.05,1.797l0.677,1.355l0.39,2.914l0.169,2.93l-0.033,1.356l-1.814,2.475l-0.357,0.271
		l-1.066,0.488l-2.186,1.714l-0.306,0.54l-0.271,0.135l-1.93,2.138l0.188,0.438l0.233,0.645l0.221,0.543l0.203,0.34l-0.167,0.136
		l-0.169-0.067l0.169,0.336l0.033,2.117l-0.016,0.614l-0.221,0.724l-1.575,1.036l-1.561,0.912l-0.219,0.68l-0.102,2.035
		l-0.917,1.945l-1.354,1.376l-1.795,2.556l-1,1.018l-3.575,2.307l-0.695,0.27l-0.355,0.133l-0.627,0.139l-0.882,0.033l-2.641,0.187
		l-1.104,0.235l-1.016,0.271l-1.136-0.049l-0.542-0.34l-0.219-0.219l-0.171,0.05l-0.372-0.627l-0.066-0.544l-0.461-0.999l0.34-0.205
		l0.152-0.796l-0.254-0.88l-1.203-2.625l-1.016-1.865l-1.44-3.251l-0.459-2.358l-0.206-2.034l-0.472-1.947l-0.732-1.441
		l-1.624-3.301l-0.338-0.561l-0.119-3.677l0.713-2.523l1.22-2.221l0.592-1.693l-0.525-2.168l-0.237-1.643l0.019-1.137l-0.728-1.796
		l-0.323-1.048l-0.086-0.255l-0.169-0.459l-2.713-4.032l-0.913-1.271l-0.543-1.172l-0.103-0.878l0.594-0.916l0.204-1.085
		l-0.052-0.408l0.118-0.679l0.256-2.762l-0.237-0.423l-0.339-0.322l-0.441-0.491l-0.626-0.322l-1.219,0.135l-1.273,0.17
		l-0.965-0.254l-0.39-0.608l-1.017-1.848l-1.576-0.288l-3.067,0.643l-0.474,0.237l-3.066,1.271l-0.762,0.104l-5.609,0.151
		l-4.1-1.255l-3.338-2.592l-0.628-0.526l-0.102-0.201l-0.05-0.188l-0.084-0.321l-0.339-1.203l-0.864-1.354l-0.847-1.035
		l-0.253-0.137l-0.255-0.254l-0.187-0.255l-0.338-0.51l-0.339-0.507l0.067,0.559l-0.136,0.34l-0.677-0.374l0.152-0.304l-0.237-0.662
		l-0.507-1.287l0.168-0.898l0.018-0.39l-0.339-0.762l-0.44-0.458l-0.254-0.17l0.22-0.17l1.135-1.914l0.34-1.305l0.086-2.998
		l0.102-1.239l-0.237-0.882l-0.611-0.339l-0.135-0.321l0.204-1.053l0.408-0.845l0.677-1.221l0.762-1.356l1.12-1.729l1.388-2.083
		l0.525-0.812l1.05-1.222l1.746-0.797l0.949-0.813l0.61-0.678l0.22-0.405l0.203-1.288l0.39-1.594l0.372-0.797l2.034-1.813
		l2.015-2.32l0.593-1.052l0.661,0.188l1.846,0.71h1.101l1.186,0.171l0.626-0.441l0.678-0.423l0.356-0.169l0.337-0.051l0.254-0.087
		l3.051-1.067l3.219-0.119h0.542l0.49-0.202l0.358-0.204h0.558l0.594,0.016l0.32-0.084L204.8,74.655L204.8,74.655z M237.131,129.368
		l-1.217-0.477l-0.798,0.34l-0.881,2.084l0.308,1.323l0.964-0.016l0.728-0.271v-0.478l0.287-0.423l0.136-0.186l0.439-1.052
		l0.066-0.356L237.131,129.368L237.131,129.368z M231.266,135.875l-0.232-0.97l-0.151,0.849l0.115,1.865l0.067,0.797l0.543,0.864
		l0.51,0.828l0.254,0.593l0.169,0.594l0.338,0.44v-0.813l-0.424-1.169l-0.608-1.048l-0.22-0.866v-0.423l-0.087-0.61l-0.085-0.372
		L231.266,135.875L231.266,135.875z M237.367,143.635l-0.506-0.221l0.22,0.56l0.101,2.965l0.389,2.067l0.053,0.561l0.066,0.333
		l0.188-0.183l0.17-0.065l0.169-0.071l-0.189-0.22l-0.151-2.591l-0.036-1.069l-0.234-0.966L237.367,143.635L237.367,143.635z"/>
	<path fill="#DDDDDD" d="M256.176,147.058l0.339-0.376l1.003,2.189l0.184,1.323l0.171,1.081l-0.104,0.868l-0.288,0.539l-0.336-0.422
		l-0.34-0.411l0.119,0.765l-0.016,1.407l-0.476,1.354l-0.746,2.286l-0.847,2.474l-0.509,1.439l-0.526,1.545l-0.441,1.27
		l-0.236,0.609l-1.17,1.172l-0.796,0.255l-1.254,0.084l-0.286-0.17l-0.9-0.864l-0.184-0.421l-0.103-0.848l-0.154-1.188l0.391-2.762
		l0.628-1.065l0.287-2.119v-2.863l0.321-0.966l0.389-0.457l0.561-0.136l0.828-0.356l2.118-1.49l0.254-0.154l0.256-0.235l0.169-0.425
		l0.152-0.388l0.408-0.645h0.169l-0.22-0.34l0.336-0.035l0.558-0.56L256.176,147.058L256.176,147.058z"/>
</g>
<g id="asia">
	<path fill="#DDDDDD" d="M272.526,16.924l2.405,0.155l0.881,0.424l1.509,0.474l1.729,0.611l0.354,0.389l-0.575,0.458l-4.306-0.593
		l-1-0.135l-0.422-0.137l-0.155-0.034l-0.254,0.22l-0.271-0.22h-0.102l-0.881-0.188l0.204-0.797l0.035-0.151L272.526,16.924
		L272.526,16.924z"/>
	<path fill="#DDDDDD" d="M283.521,20.601l3.269,0.252l1,0.086l0.153-0.169l0.477,0.83l0.32,0.084l2.475-0.134l2.388,0.289
		l0.458,0.118l0.474,0.068l0.085,0.322h0.206l1.1,0.983l-0.898,0.609l-1.61,1.017l-0.542,0.221l-0.51,0.168l1.494-0.016l0.455-0.423
		l0.067-0.339l0.593-0.015l0.407-0.238l0.862-0.322l0.781,0.238l1.406,0.829l4.558,0.052l-0.051,0.253l0.102,0.169l1.271,0.085
		l3.052,0.068l-0.339-0.304l-0.339-0.391l0.153-0.084l0.221-0.086h0.812l1.187,0.238l0.626,0.169l0.289-0.017l3.321,0.932
		l0.236,0.22l0.814,0.525l2.829,1.405l0.238-0.964l0.102-0.289l0.134,0.118l0.271,0.171l1.119,0.186l1.151,0.017l1.438-0.152
		l1.409-0.035l0.845,0.102l0.509,0.101l-0.476-0.219l-0.355-0.34l-0.306-0.119l-0.542-0.253l0.542-0.255l0.627-0.017l-0.425-0.237
		h2.798l3.354,0.645l0.168-0.036l3.609,0.475l1.509,0.44l1.407,0.357l3.236,0.134l3.793,0.168l2.152,1.018l2.032,0.475l4.747,0.035
		l0.762-0.238l1.15-0.169l0.542,0.051l-0.593,0.119l-0.594,0.119l0.594,0.051l0.73,0.018l0.118,0.17l-0.341,0.101l-0.254,0.054
		l0.865,0.234l1.017,0.287l0.695,0.122l0.477-0.052l-0.645-0.391l-0.799-0.372l-0.628-0.441l-0.134-0.354l4.488,0.372l2.964,0.305
		l11.017,2.762l1.982,0.405l4.914,1.152l0.408,0.491l0.184,0.103l0.188,0.133l-0.523,0.288l-0.104,0.39l0.507,0.322L381.335,36
		l0.287,0.254l0.118,0.271l-0.744-0.136l-0.087-0.016l-1.218-0.036l-1.392-0.321l-1.219-0.457l-2.036-0.44l-2.152-0.474
		l-1.065-0.321l0.558,0.355l0.696,1.136l-0.322,0.491l2.541,1.474l0.679,0.356l0.644,0.322l0.372,0.475l-0.456,0.237l-2.236-0.034
		l-0.457,0.271l-0.235,0.187l-0.495,0.338l-0.591,0.576l-0.506,0.814l-0.24,0.695l-0.896,0.017l-2.864,0.101l-0.677,0.068
		l-0.746-0.068l-0.358,0.39l-0.153-0.271l-0.236,0.018l-0.49,0.17l0.051,0.457l0.34,0.949l1.148,1.22l1.122,0.542l1.201,1.084
		l0.949,0.967l-0.542-0.085l0.526,1.322l0.711,0.746l-0.527,0.203l-0.71,0.254l0.611,1.05l0.355,0.576h-0.645v0.881l0.19,1.712
		l-0.275,0.526l-0.489-0.356l-0.881-0.813l-1.152-1.068l-1.474-1.27l-1.524-1.375l-2.708-3.558l-0.374-0.83l-0.051-0.407l0.373-0.17
		l0.253-0.17l0.49-1.354l0.085-0.73l0.104-0.644l0.307-0.746l0.221-0.931l-1.053-1.34l-0.764-0.202l0.087,0.575l0.608,0.458
		l-0.286,0.373l-0.66,0.61l-0.288,0.44l-0.117,0.118l-0.34-0.152l-0.489-0.289l-0.867-0.847l-0.455-0.236l-0.813-0.035l-1.017,0.052
		l-0.712,0.627l-0.188,1l0.544,1.203l0.695,0.695l-0.967,0.085l-0.477,0.068l-1.66,0.185l-0.541-0.422l-0.203-0.339l-0.576-0.067
		l-1.627-0.289l-0.188,0.253l-1.272,0.307l-1.285,0.084l-0.255,0.136l-0.441-0.189l-3.116,0.053l-0.358,0.542l-0.254,0.51
		l-0.085,0.525l0.034,0.424l-0.746,1.661l-0.781,1.523l0.833,1.035l1.203,0.694l0.253,0.204l0.086-0.374l-0.104-0.322l-0.067-0.407
		l-0.116-0.084l-1.185-0.203l0.304-0.153l0.51-0.103l0.85,0.695l0.101,0.237l0.184,0.339l0.255,0.338l0.256,0.339l0.169,0.339
		l0.322-0.949l1.829,0.169l1.541,0.763l1.054,0.695l0.982,1.119l-0.799-1.238l0.052-0.542l-0.221-0.661l-0.253-0.44l1.236,0.781
		l0.578,0.475l1.201,1.321l1.729,1.813l2.167,2.051l1.253,1l0.542,0.457l-0.849-0.287l-1.439-0.135l0.375,1.034l0.676,1.016
		l0.846,0.659l0.593,0.391l0.816,1l-0.308-0.085l-0.779-0.441l-0.354,0.526l0.118,0.61l-0.526-0.491l-0.714-1.067l-0.32-0.56
		l-0.339-0.61l-0.693-1.034l-0.866-1.22l-0.931-1.373l-0.659-0.931l-1.765-1.441l0.831,2.237l0.237,0.372l0.066,0.238l0.608,1.05
		l0.255,1.355l-0.17,1.95l-0.15,1.71l-0.661,2.441l-1.493,1.711l-1.728-0.507l-0.254,0.049l-0.271,0.086l-0.186,0.236l-0.321,0.356
		l-0.153,0.254l-0.205,0.305l-0.085,1.338l-0.202,1.084l-0.915,0.899l-0.204,0.677l0.878,0.746l0.999,0.763l1.137,1.118l1.814,3.203
		l-0.951,1l-0.235,0.068l-0.322,0.169l-0.389,0.169l-0.814,0.204l-0.762-0.339l-0.186-0.509l-0.016-1.151l-0.763-1.119l-0.306-0.813
		l-0.254-0.746l-0.426-0.187l-0.322-0.084l-0.424-0.017l-0.948-0.407l-0.171,0.084l-0.168-0.881l-0.337-1.322l-0.46-0.153
		l-0.438-0.102l-1.069-0.034l-1.439,0.779l-0.813,0.695l-0.082-0.526l-0.054-0.508l-0.051-1.035l-0.627-1.033l-0.898,0.593
		l-0.492,0.559l-0.592,0.78l-1.188,0.559l-0.271,0.337l1.391,0.984l0.983,0.865l0.425,0.49l0.66-0.135l0.169-0.423l1.15-0.134
		l1.119,0.254l1.052,0.677l-0.492,0.407l-1.067,0.526l-0.339,0.423l-0.271,0.543l-0.593,0.916l0.729,0.829l2.203,2.336l0.423,0.56
		l1.44,1.289l-0.203,0.151l-0.188-0.254l-0.185-0.101l0.424,0.693l0.405,0.236l0.084,0.239l-0.322,0.558l-0.287,0.608l0.682,0.188
		l0.539-0.101l0.052-0.323l0.153-0.169l0.117,1.048l-0.235,1.017l-0.069,0.254l0.069,1.187l-0.254,0.221l-0.441,0.931l-0.17,0.511
		l-0.169,0.44l-0.203,0.321l-0.087,0.12l-0.05,0.305l0.188,0.83l0.152,0.169l-0.373,0.271l-0.254,0.101l-0.459,0.442l-0.033,0.102
		l-0.46,0.879l-0.543,0.506l-0.693,0.612l-0.528,0.592l-1.096,0.508l-0.139,0.154l-0.184,0.168l-0.068-0.168l-0.576,0.184
		l-0.695,0.51l-0.813-0.321l-0.119-0.035l-0.408,0.78l-0.185,0.067l-0.169,0.085l-0.067,0.151l-0.68,0.102l-0.523,0.017
		l-0.288,0.051l-0.069,0.068l-0.101,0.239l-0.39,0.051l-0.373,0.067l-0.222,0.372l-0.184,0.22l0.016,0.272l-0.286,0.847l-0.798-1.61
		l-0.287-0.235l-0.71-0.101l-1.575,0.577l-0.205,0.219l-0.305,0.22l-0.237,0.169l-0.425,0.492l-0.506,0.678l-0.221,0.846
		l0.576,1.374l0.576,0.779l2.389,2.27l0.322,0.323l0.51,0.695l0.507,0.745l0.271,0.782l0.356,1.32l0.237,0.898l0.153,0.423
		l-0.153,0.253l-0.086,0.374l-0.321,1.558l-0.644,0.406l-1.713,0.914l-0.221,0.12l-0.979,1.507l-0.934,0.78l-0.422,0.339
		l-0.087-2.05l-0.117-0.255l-0.629-0.372l-0.306,0.102l-0.354,0.118l-0.221-0.711l-0.035,0.067l-0.053,0.22l-0.862-0.896
		l-0.306-0.799l-0.575-0.541l-0.307-0.204l-1.272-0.644l-0.593-0.677l-0.457-0.609l-0.509,1.066l-0.321,1.948l-0.254,2.865
		l0.696-0.34l0.115-0.254l0.035,0.608l0.27,1.272l0.406,1.066l1.203,1.271l0.61,0.438l0.44,0.527l1.777,1.948l0.188,1.729
		l0.456,1.813l0.491,1.016l0.155,0.324l0.117,0.184l-0.286,0.322l0.151,0.104l0.557,0.524h-0.336l-0.137,0.152l-0.103,0.357
		l-0.184-0.338l-0.257-0.238l-0.152-0.168l-0.491-0.153l-0.016-0.066l-1.576-1.475l-1.235-1.204l-0.424-0.827l-0.527-1.17
		l-0.306-0.83l-0.152-0.83l-0.203-1.066l-0.257-0.034l-0.269,0.087l0.015-0.357l-0.254-0.813l-0.509-0.864l-0.169,0.017
		l-0.169-0.135l-0.798-0.187l-0.271-1.965l-0.169-2.303l-0.286-0.356l0.252,0.035l0.441,0.05l-0.271-0.781l-0.593-0.54l0.151,0.05
		l0.323-0.287l0.051-0.527l-0.255-0.271l0.152-0.167l0.068-0.729l-0.425-0.527l-0.235-0.422l-0.236-0.898l-0.339-1.135l-1.288-2.677
		l-0.61,0.796l-0.846,0.745l-1.492,0.118l-0.475-0.133l0.103-1.271l-0.257-2.05l-0.864-0.813l-0.336-0.018v-0.204l0.066-0.305
		l-0.086-0.491l-0.661-0.593l-0.306-0.12l-0.558-0.814l-1.134-1.896l-0.374-0.763l-0.255-0.255l-0.235-0.271l-0.036,0.374
		l-1.15,0.897l-0.932,0.17l-1.66,0.067l-0.475-0.05l-0.645,0.322l-0.203,0.525l-0.339,1.39l-1.034,0.711l-1.186,1.104l-2.508,2.542
		l-0.153,0.475l-1.084,0.878l-0.337,0.424l-0.513,0.324l-0.438,2.134l-0.037,3.016l-0.049,2.423l-0.306,0.491l-0.56,0.458
		l0.087,0.813l0.322,0.238l-0.271,0.117l-1.341,0.61l-1.237,0.814l-1.354-2.085l-1.474-3.438l-0.848-1.865l-0.559-1.592
		l-0.931-1.831l-0.848-2.204l-0.967-3.626l-0.066-1.184l-0.171-1.121l-0.153-0.709l-0.101-0.17l-0.117-0.424l-0.034-0.424
		l-0.153,0.796l-1.762,1.576l-2.663-2.523l0.308-0.171l1.151-0.287l-0.236-0.17l-2.053-0.914l-0.729-0.508l-0.896-1.068
		l-0.442-0.458l-0.32-0.337l-1.577-0.375l-1.711,0.034l-0.609,0.034l-0.679,0.086l-0.676,0.051l-2.205-0.068l-2.39-0.354
		l-2.438-1.356l-0.305-0.897l-0.728-0.052l-0.967,0.592l-0.778,0.188l-0.525-0.084h-0.339l-0.187,0.168l-0.066-0.153l-0.527-0.287
		l-0.373-0.253l-0.052-0.152l-0.76-0.455l-1.085-0.662l-1.085-1.015l-0.627-0.882l-0.153-0.254l-0.373-0.746l-0.679-0.458
		l-0.575-0.067l-1.053,0.508l-0.542,0.305v0.17l0.388-0.053l0.054,0.119l0.782,1.965l0.133,0.237l0.339,0.356l0.336,0.271
		l0.206,0.102l0.219,0.186l0.338,0.474l0.358,0.409l0.051,0.321l0.355,0.236l0.169,0.713l-0.169-0.152l-0.17-0.271l0.139,0.728
		l0.32,0.458l0.204-0.679l0.813-0.542l0.168,2.188l0.066,0.388l0.51,0.271l0.661-0.204l0.17-0.235l0.169,0.152l0.593,0.221
		l0.593-0.086l0.204-0.084l2.59-2.626l0.56,0.543l2.272,2.878l1.32,0.848l0.153,0.186l0.236,0.339l0.442,0.339l0.353,0.254
		l-0.946,1.831l-0.254,0.726l0.05,0.593l-0.512,0.051l-0.608,0.932l-0.336,1.034l-1.121,0.828l-0.929,0.732l-0.562,0.473
		l-0.982,0.848l-2.049,0.593l-0.863,1.104l-2.371,1.337l-1.746,0.932l-0.915,0.441l-0.677,0.169l-1.849,0.678l-1.099,0.526
		l-0.782,0.423l-0.372,0.085l-0.78,0.067l-0.88-1.271l-0.73-2.458l-0.117-0.44l-0.9-0.931l-0.928-1.458l0.336,0.153h0.151
		l0.207-0.254l0.233,0.288l0.22,0.12l0.189,0.053l0.235,0.44l0.154-0.22l-0.34-0.544l-0.152-0.236l-0.629-0.881l-0.643-0.779
		l-0.287-0.372l-0.307-0.762l-0.423-0.732l-0.34-0.286l-0.438-0.44l-0.579-0.627l-0.506-0.542l-0.305-0.576l-0.185-0.526
		l-0.169-0.864l-0.087-0.747l-0.188-0.39l-0.338-0.677l-0.222-0.61l-0.066-0.069l-0.287-0.136l-0.322-0.253l-0.695-1.066
		l-0.727-1.39l-0.646-0.983l-0.627-0.965l-0.304-0.509l-0.17-0.168l-0.169-0.254l-0.322-0.254l-0.594,0.254l-0.354,0.254
		l-1.442-1.643l-0.321-0.575l-0.697-2.338l0.561-0.593l0.948-0.085l1.203-1.526l1.036-3.134l-0.205-1.524l0.015-0.525l-0.015-0.542
		l0.118-0.457l-0.272-0.187l-0.677,0.117l-1.135,0.204l-2.354,0.305l-2.086-0.678l-0.696,0.781l-1.016-0.306l-1.187-0.357
		l-0.255,0.187l-0.254-0.17l-0.253-0.067l-0.258-0.067l0.308-0.254l-0.05-0.067l-0.528-0.238l0.17-0.305l-0.373-0.492v-0.39
		l-0.355-0.221l-0.609-0.575l0.491-0.17l0.052-0.118l-0.138-0.51l-0.067-0.473l-0.136-0.273l-0.629-0.44l-0.255-0.423l-0.254-0.188
		l0.237-0.101l0.304-0.068l1.577-0.187l1.813-0.679l1.336-0.459l1.408-0.084l2.863-1.118l1.661,0.22l0.627,0.22l0.543,0.237
		l0.507,0.254l0.424,0.087l0.608,0.168l0.492,0.153l1.611,0.104l2.522-1.78l-1.27-1.085l-1.341-0.865l-0.389-0.403l0.439-0.172
		l1.001,0.135l1.151,0.44l1.374,0.61l1.69,0.39l0.915-0.103l1.104,0.966l5.709,2.934l0.557,0.118l-0.456,0.169l-0.472,0.813
		l-0.238,0.967l-0.134,0.761l1.049,1.272l1.018,0.507l3,0.561l1.049-0.561l-0.271-1.354l-0.931-1.576l-0.188-0.425l-0.187-0.509
		l-0.593-1.169l-0.661-1.407l-0.067-0.66l-0.559-0.999l-0.607-0.341l-0.372-0.132l-0.207-0.221l-0.135-0.356l-0.422-0.507
		l-0.542-0.511l-0.424-0.336l0.338-0.339l0.422-0.153l0.104-0.577l1.049-0.354l0.966,0.151l-0.256-1.88l-0.762-0.321l-1.186-0.34
		l-0.455-0.558l-0.426-0.951l-0.524-1.237l-1.033-2.033l0.526-0.88l1.507-0.187l1.032-0.186l3.525,0.151l1.813,0.271l0.813,0.085
		l0.322,0.188l0.594,0.254l0.83,0.015l0.744-0.152l0.339-1.219l-0.933-0.796l-0.896-0.983l-0.152-1.05l-0.104-1.304l-1.61,0.067
		l-1.848-0.017l-0.828-1.101l-0.101-0.83l0.795-0.338l0.663-2.169l-0.866-2.203l-1.424-5.949l-0.777-2.303l0.979-0.509l3.596-2.542
		l-0.628-0.795l1.22-0.152l1.322,0.408l-0.255-0.559l-0.88-0.492l-0.728-0.237l-0.73-0.813l-0.425-0.661l0.088-0.932l0.506-0.93
		l0.22-0.883l0.154-0.439l1.595,0.051l-0.272,0.271l0.558,0.17l1.405,0.44l0.052,1.186l0.272,0.289l0.981,0.897l0.422,0.899
		l0.376,0.782l0.729,0.505l0.727,0.865l-0.103,0.559l-0.424,0.677l-0.576,0.594l-0.102,0.067l0.73,0.289l0.542-0.153l0.508-0.372
		l0.509-0.492l0.22-0.592l-0.288-0.611l0.356-1.067l-0.576-0.085l-1.237-0.134l-0.355-0.458l-0.256-0.779l-0.847-1.034l-0.778-0.559
		l0.202-0.287l0.507-0.338l0.341-0.507l-0.068-0.289l-0.052-0.087l-0.728-0.067l-0.354-0.373l0.524,0.016l0.542,0.204l0.98,1
		l1.306,0.966l0.237-0.119l-0.915-0.405l0.152-0.338l0.424-0.238l-0.168-0.287l0.728-0.188l3.186,0.729l1.019,0.22l0.271-0.101
		l-0.306-0.204l-0.779-0.236l-1.152-0.441l-0.848-0.746l-0.491-0.389l1.426-0.034l1.832-0.389l0.049-0.153l0.389,0.17l1.392-0.051
		l-0.359-0.153l-0.694-0.204l-0.476-0.05l-0.187,0.102v-0.391l0.798-0.067l0.101-0.085l0.272-0.287l0.252-0.169l0.407-0.067
		l0.828-0.171l1.544-0.39l1.373-0.321l3.407-0.254l0.524,0.085l0.695-0.255l0.828-0.152l0.578-0.237L283.521,20.601L283.521,20.601z
		 M296.672,24.686h-0.846l0.558,0.168L296.672,24.686L296.672,24.686z M270.003,31.141l-1.188-0.321l0.305,0.135l0.61,0.338
		L270.003,31.141L270.003,31.141z M375.72,33.497l-0.273-0.17l0.118,0.237L375.72,33.497L375.72,33.497z M372.499,36.376
		l-0.475-0.169l-0.118,0.169H372.499L372.499,36.376z M313.566,48.694l-0.558-0.169l-0.356,2.984l-0.118,0.355l-0.254,0.592
		l-0.357,0.492l-1.119,0.729l-0.102,0.186l1.066-0.017l0.63-0.643l0.66-0.712l0.829-0.609l0.307-0.458l-0.103-0.135l-0.307-0.34
		l0.172-0.338l0.067,0.288h0.101L313.566,48.694L313.566,48.694z M280.982,60.929l-0.375-0.138l-0.748,0.732l-0.102,0.101
		l0.05,1.017l0.257-0.322l0.255-0.525l0.254-0.254l0.258-0.357L280.982,60.929L280.982,60.929z M281.981,60.896l-0.221-0.085
		l-0.203,0.085H281.981L281.981,60.896z M284.302,61.114l-0.574-0.168l0.322,0.237L284.302,61.114L284.302,61.114z M285.319,61.098
		l-0.34-0.153l-0.336,0.135l0.336,0.152L285.319,61.098L285.319,61.098z M264.936,61.386l-0.22-0.083l-0.103,0.101L264.936,61.386
		L264.936,61.386z M263.631,62.132l-0.455,0.085l-0.052,0.339l0.168,1.033l0.236,0.916l0.511,0.102l0.507-0.407l0.034-0.694
		l-0.338-0.627l-0.424-0.321l-0.439-0.085l0.068-0.169L263.631,62.132L263.631,62.132z M263.036,62.98l-0.357-0.339v0.592
		L263.036,62.98L263.036,62.98z M262.528,64.3l-0.154-0.745l-0.254-0.373L262.528,64.3L262.528,64.3z M257.886,68.097l-1.033,0.271
		l0.813,1.05l0.441,0.204l0.337-0.103l0.475-0.186l-0.305-0.373L257.886,68.097L257.886,68.097z M236.861,87.464l-0.07-0.256
		l-0.168,0.256l0.067,0.254L236.861,87.464L236.861,87.464z M302.093,100.257l-0.187-0.169l-0.068,0.169l0.19,0.169L302.093,100.257
		L302.093,100.257z M247.091,104.967l-0.152-0.134l-0.154,0.134l0.154,0.153L247.091,104.967L247.091,104.967z M326.579,113.12
		l-0.255,0.116l0.17,0.154L326.579,113.12L326.579,113.12z M330.137,114.66l-0.372-0.339l0.119,0.339l0.373,0.338L330.137,114.66
		L330.137,114.66z"/>
	<path fill="#DDDDDD" d="M320.734,24.329l0.946,0.102l0.882,0.254l2.575,0.677l-1.356,0.187l-1.779-0.086l-0.491-0.084l0.221-0.186
		l0.256-0.253l-0.44-0.153L320.734,24.329L320.734,24.329z"/>
	<path fill="#DDDDDD" d="M358.35,62.742l0.188-0.273l1.507,0.848l2.153,1.068l1.322,0.118l0.423,0.067l0.405-0.051l0.44-0.575
		l0.339,0.253l-0.222,0.086l-0.271,0.678l0.221,0.677l0.271,0.088l-1.12,0.643l-0.643,0.948l-0.103,0.408l-0.066-0.205l-0.087-0.067
		l-1.149-0.255l-1.274-0.169l-0.522,0.035l-0.463-0.051l0.683,0.44l0.438,0.609l-0.338,0.254l-0.711-0.152l-0.966-0.726l-0.066-0.34
		l0.254-0.643l-0.037-0.405l0.426-0.357l0.306-0.255l-0.087-0.339l-1.352-2l-0.241-0.118l0.171-0.087L358.35,62.742L358.35,62.742z"
		/>
	<path fill="#DDDDDD" d="M360.891,68.487l0.267-0.183l0.51,0.102l0.237,0.22l1.1,1.37l1.103,1.983l0.166,0.831l0.17,0.186
		l-0.336,0.067l-0.34,0.138l0.34,0.627l0.354,0.661l0.068,0.526l0.066,0.609l0.358,0.744l0.15,0.61l-0.065,0.408l-0.153,0.44h-0.542
		l-0.629,0.133l-0.523,0.152l-0.257-0.473l-0.016,0.423l-0.761,0.424l-0.764-0.103l-0.337-0.203l-0.339,0.05l0.339,0.255
		l0.085,0.592l-0.391,0.543l-0.474,0.509l-1.084-1.001l-0.188-0.134l-0.082,0.338l-0.121,0.66l-0.453,0.271l-0.258-0.168
		l-0.488,0.915l-0.932-0.255l-0.542-0.067l0.066,1.271l-0.341,1.524l-0.388,0.22l-0.374-0.254l-0.391-0.304l-0.454-0.915
		l-0.356-0.831l-0.066-0.068l-0.628-0.406l-0.456-0.509l0.39-0.338l0.607-0.493l0.205-0.524l0.305-0.44l1.221-1.375l0.983-0.203
		l1.235-0.169l1.101,0.017l0.408-0.034v-0.288l-0.033-0.712l0.456-0.982l-0.085,0.152l-0.237-0.189l0.035-0.608l0.476,0.237
		l0.373,0.627l0.591-0.374l0.454-0.475l0.24-0.762l-0.068-2.372l-0.439-0.339l-0.17-0.271l-0.153-0.575l-0.101-0.425l0.085-0.542
		l0.084-0.323L360.891,68.487L360.891,68.487z M361.741,68.978l-0.258-0.068l-0.257,0.169l0.257,0.068L361.741,68.978
		L361.741,68.978z M358.637,78.484l-0.781-0.016l0.255,0.337L358.637,78.484L358.637,78.484z M357.397,78.992l-0.028-0.237
		l-0.626,0.338L357.397,78.992L357.397,78.992z M355.927,79.281l-0.019-0.323l-0.082,0.219L355.927,79.281L355.927,79.281z
		 M356.421,79.365l-0.188-0.118l-0.947,0.238l-0.834,0.068l0.562,0.234l0.504,0.254l0.087,0.221L356.421,79.365L356.421,79.365z"/>
	<path fill="#DDDDDD" d="M235.402,76.958l0.475-0.254l-0.22,0.475l-0.255,0.475l-0.085,0.237l-0.645,0.355l-0.968,0.121
		l-0.253-0.814l0.355-0.169l0.645-0.17L235.402,76.958L235.402,76.958z"/>
	<path fill="#DDDDDD" d="M347.047,101.986l1.069-0.018l0.66,0.084l0.557,0.561l0.273,1.084l-0.237,1.982l-0.372,0.474l0.336,0.882
		l0.883,0.542l-0.205,0.083l-0.694,0.308l0.829,0.153l0.849,0.167l0.254,0.186l0.661,0.17h0.508l0.524,0.101l-0.035,0.508
		l-0.489-0.017l-0.254-0.168l0.234,0.491l0.392,0.661l-0.234,0.559l0.099,0.645l-0.388,0.254l-0.543-0.051l-0.153-0.457
		l-0.254-0.814l-0.119-0.608l0.578,0.879l0.101,0.137l-0.439-1.033l-0.694-0.341l0.084,0.476l-0.306-0.169l-0.372-0.035h-0.439
		l-0.016-0.424l-0.579-0.168l-0.083,0.491l0.271,1.457l-0.88-0.476l-0.779-1.185l-0.256-0.628l0.358,0.253l0.607,0.067l-0.168-0.067
		l-0.168-0.864l0.119-0.526l-0.119,0.17l-0.171,0.287l-1.066-1.508l0.168-1.253l0.137-0.051L347.047,101.986L347.047,101.986z"/>
	<path fill="#DDDDDD" d="M352.926,110.948l0.697-0.288l0.999,0.933l0.34,0.948l0.32,0.526l-0.49-0.067l-0.358,0.559l-0.015,0.543
		l0.102,0.22l0.271-0.254l0.392,0.085l0.372,0.22l0.184,0.525l0.037,0.542l0.877,2.914l-0.17,0.458l-0.168,0.729l-0.255,0.306
		l-0.256-0.629l-0.287-0.253l-0.066,0.813l0.085,0.762l-0.138,0.543l-0.474-0.019l-0.388-0.438l-0.849-0.441l-0.456-1.253
		l-0.321-1.054l-0.322,0.189l-0.257,0.271l-0.337,0.051l-0.421-0.205l-0.259-0.034l-0.253,0.61l-0.543,0.103l0.087-0.728
		l0.219-0.729l0.49-0.204l0.424-0.254l0.443-0.456l0.743,0.169l0.562,0.017l0.301-0.219l0.104-0.41l0.052-0.543l0.169,0.153
		l0.424,0.135l0.323-0.354l-0.12-0.56l-0.491-0.407l-0.475-0.679l-0.236-0.49l-0.357-0.61l0.34-0.522l0.306,0.066l-0.41-0.609
		L352.926,110.948L352.926,110.948z"/>
	<path fill="#DDDDDD" d="M349.878,111.763l0.68,0.103l0.831,0.255l0.321,0.423l0.221,0.425l0.321-0.17l0.339-0.169l0.335,0.644
		l0.427,0.881l0.152,0.915l-0.831-0.066l-0.067-0.17l-0.354,0.593l-0.611,0.338l-0.304-0.254l-0.409-0.339l0.137-0.629l0.101-0.678
		l-0.322-0.101h-0.305l-0.371-0.695l-0.12-1.034L349.878,111.763L349.878,111.763z M352.54,113.339l-0.019-0.321l-0.086,0.219
		L352.54,113.339L352.54,113.339z M352.419,114.577l-0.167-0.427l-0.169-0.086l0.169,0.423L352.419,114.577L352.419,114.577z
		 M352.709,114.524l-0.019-0.322l-0.084,0.22L352.709,114.524L352.709,114.524z M352.031,114.863l-0.019-0.322l-0.085,0.221
		L352.031,114.863L352.031,114.863z"/>
	<path fill="#DDDDDD" d="M346.727,112.967l0.443-0.63l0.335,0.138l-0.169,0.066l-0.166,0.34l0.335,0.542l-0.101,0.542l-1.085,1.051
		l-0.848,1.033l-0.847,1.035h-0.189l-0.066-0.576l1.662-1.712l0.034-0.136l0.22-0.645L346.727,112.967L346.727,112.967z"/>
	<path fill="#DDDDDD" d="M296.061,114.862l0.32-0.202l1.135,1.117l0.238,0.391l1.118,2.677l-1.1,1.457l-1.357-0.253l-0.406-3.102
		l-0.016-0.932l-0.171-0.188l0.255-0.084l0.254-0.22l-0.203-0.391L296.061,114.862L296.061,114.862z"/>
	<path fill="#DDDDDD" d="M344.165,118.354l0.396,0.304l0.322,0.609l0.389,0.729l0.186,0.287l0.338,0.085l1.17,0.729l0.373,0.323
		l-0.999,0.524l0.066,0.404l-0.188,0.51l-0.712,0.747v0.627l0.154,0.949l0.235,0.847l0.611,0.982l-0.139,0.999l-0.999,1.509
		l-0.052,0.9l-0.744,0.54l-0.579,1.373l-0.116,0.677l-0.188,0.951l-0.085,0.796l-0.389,0.118l-0.204-0.373l-0.745,0.404
		l-1.033-0.067l-0.832-0.575l-0.354-0.102l-0.255-0.188l-0.255-0.168l-0.373,0.168l-0.662,0.256l-0.404,0.085l-0.423-0.355
		l-0.711-0.321l-1.408-0.813l-0.102-1.375l-0.321-0.474l-0.88-1.458v-2.644l0.949-0.593l0.39,0.22l0.68,0.154l0.557-0.117
		l0.152-0.476l0.171-0.982l0.271-0.067l0.847-0.289l1.44-0.912l0.68-1.169l0.321-0.356l0.593-0.255l0.71-0.254l0.258-0.236
		l0.218-0.526l0.595-0.779l0.305-0.49l0.374-0.646L344.165,118.354L344.165,118.354z"/>
	<path fill="#DDDDDD" d="M316.241,120.929l0.911,0.146l1.223,0.324l1.169,0.388l0.507,0.609l0.169,0.476l0.151,0.257l0.392,0.22
		l0.812,0.627l1.019,1.001l0.152,0.182l0.272,0.358l0.475,0.256l0.523,0.049l0.527,0.223l0.338,0.388l0.255,0.356l0.678,0.304
		l0.424,0.341l0.425,0.354l0.285,0.139l0.17,0.17l0.153,0.474l-0.102,1.255l0.087,0.525l0.71,0.235l0.389,0.491l0.254,0.762
		l0.256,0.424l0.135,0.189l0.511,0.1l0.371-0.085l-0.306-0.185l-0.102-0.627l1.016,0.065l0.58,1.017l0.234,0.236l0.034,0.341
		l0.256-0.036l0.151-0.035l-0.999,0.406l-0.61,1.847l-0.17,1.829l0.052,0.476l0.678,0.051l0.576-0.016l0.594,0.102l0.934,0.321
		l0.557,0.425l0.848,0.39l1.134,0.066l0.747-0.373l0.511-0.134l0.338,0.203l0.607,0.151l1.713,0.222l1.254,0.137l-1.324,0.475
		l-0.287,0.221l0.813,0.304l1.186,0.305l0.764,0.339l0.778,0.526l0.034,0.425l0.374-0.376l0.863-0.182l0.356,0.101l0.286-0.119
		l0.323-0.169l1.034-0.154l0.967,0.034h0.22l-0.068,0.19l-0.086,0.167l0.439,0.086l0.322,0.118l0.17-0.033l0.965-0.237l2.222,0.304
		l0.523-0.355l0.474-0.288l0.983,0.12l1.729,0.22l-1.49,0.221l-0.424,0.033l-0.441,0.138l-1.152,0.235l-3.793-0.033l-0.422,0.052
		l-1.173,0.05l-0.321-0.05l0.138,0.117l-0.594,0.237l-1.187,0.086l-0.982-0.255l-0.644-0.288l-0.255,0.137l-0.255-0.034
		l-0.336-0.457l-0.258,0.236l-0.811,0.102l-0.747-0.169l-0.222-0.119l-0.253-0.101l-3.625-0.578l-2.152-0.304l-1.003-0.22
		l-0.979-0.271l-0.594-0.236l-1.053-0.662l-0.609-0.253l0.272-0.288l0.49-0.255l-0.05-0.694l-0.779-0.067l-2.05-1.304l-1.51-1.611
		l-0.457-0.609l-1.303-1.916l-1.831-3.255l-0.848-2.166l-0.729-0.661l-0.762-0.763l-0.966-1.305L316.241,120.929L316.241,120.929z
		 M345.472,141.702l-0.254-0.17l-0.254,0.068l0.254,0.17L345.472,141.702L345.472,141.702z"/>
	<path fill="#DDDDDD" d="M287.015,123.454l0.134-0.493l0.066,0.525l0.102,0.423l0.305,1.221l0.271,0.255l0.138,0.355l-0.679-0.051
		l-0.103-0.645l0.087-0.05l0.186,0.05l-0.186-0.305l-0.087-0.357l-0.066-0.321L287.015,123.454L287.015,123.454z M287.86,125.673
		l-0.169-0.168l-0.17,0.168l0.17,0.17L287.86,125.673L287.86,125.673z"/>
	<path fill="#DDDDDD" d="M358.35,126.281l0.509,0.256l0.372,0.426l0.509-0.271l-0.189,1.046l0.09,0.629l-0.257,0.39l-0.375,1.018
		l-0.132,0.526l-0.188-0.037l-1.104-0.202l0.424-0.543l0.323-0.389l-0.136-0.171l-0.219-0.034l0.103-0.438l-0.071-0.256
		l-0.083-0.186l0.168-0.659L358.35,126.281L358.35,126.281z"/>
	<path fill="#DDDDDD" d="M354.217,127.196l0.98-0.4l-0.325,0.847l-0.422,0.73l-3.391,0.221l-2.473,0.76l0.254,0.883l0.357,0.525
		l0.829-0.017l0.932-0.424l1.016-0.237l0.949,0.341l-0.389,0.252l-0.761,0.406l-0.611,0.528l-0.422,0.234l0.338,1.103l0.441,1.187
		l0.658,0.827l0.324,0.593l-0.138,0.748l-0.033,0.371l-0.254,0.61l-0.661,0.017l0.12-1.339l0.052-0.287l-0.478,0.339l-0.491,0.337
		l-0.404-0.761l-0.357-0.781l-0.288-0.966l-0.321-0.646l-0.44,3.525l-0.61,0.711l-0.709-1.033l0.151-1.475l-0.423-0.559
		l-0.408-0.203l-0.083-0.744l0.083-0.461l0.693-1.593l0.271-0.914l0.205-0.899l0.067-0.49l0.138-0.306l0.846-0.967l0.288-0.203
		l0.27-0.406l0.8,0.187l1.32,0.236l1.577,0.203L354.217,127.196L354.217,127.196z"/>
	<path fill="#DDDDDD" d="M359.451,133.267l2.964,1.167l-0.813,0.052l-0.898-0.256l-0.661-0.085l-0.338,0.051l-0.594,0.409
		l-0.594-0.222l-0.253-0.305l0.085-0.491l0.339-0.067h0.137L359.451,133.267L359.451,133.267z"/>
	<path fill="#DDDDDD" d="M356.807,141.33l0.609,0.099l-1.913,1.188l-1.338,0.864l-2.087,0.914l0.052-0.39l0.357-0.662l0.915-0.726
		l1.05-0.68l1.271-0.424L356.807,141.33L356.807,141.33z"/>
</g>
<g id="australia">
	<path fill="#DDDDDD" d="M363.772,129.911l1.799-0.021l0.829,0.257l0.509,0.897l0.17,0.983l-0.065,0.084l-0.188,0.118l0.391,0.356
		l0.287,0.576l0.574,0.813l0.61-0.356l0.558-0.695l0.289-0.511l0.438-0.132l0.526-0.307l0.594-0.526l1.658,0.373l1.85,0.73
		l0.695,0.271l0.222,0.085l0.875,0.32l1.647,0.662l1.15,0.509l0.543,0.255l0.594,0.254l0.405,0.171l0.154,0.085l0.336,0.542
		l0.593,0.137l0.258,0.067l-0.154,0.268l-0.222,0.427l0.36,0.525l0.729,0.356l0.539,0.288l0.951,0.983l-0.594,0.305l-0.592,0.372
		l0.642,0.966l0.867,1.323l0.725,0.61l0.442,0.305l0.42,0.456l0.29,0.372l0.506,0.51l0.477,0.373l0.033,0.152h0.391l0.035,0.152
		l-1.83-0.067l-0.882-0.234l-1.304-0.188l-0.882-0.628l-0.371-0.407l-0.17-0.152l-0.15-0.357l-0.255-0.524l-0.138-0.322
		l-0.287-0.374l-0.797-0.557l-0.748-0.288l-1.626,1.151l-0.153,0.306l-0.152,0.169l-0.169,0.271l-0.17,0.32l-0.372,0.866
		l-0.05-0.171l0.17-0.507l-0.237-0.169l-0.405,0.051l-1.052-0.086l-1.559-0.829l-1.221-0.744l-0.678,0.202l-1.71,0.015l1.168-1.49
		l0.287-0.593l-0.137-0.592l-0.134-0.306l-0.239-0.628l-0.202-0.51l-3.152-1.508l-0.812-0.321l-0.934-0.562l-0.76-0.051l0.049,0.358
		l0.068,0.236l-0.358-0.085l-0.424-0.119l-0.27-0.745l-0.065-0.17l-0.188-0.254l-0.424-0.424l-0.424-0.321l0.848-0.272l0.508-0.169
		l0.594-0.151l0.504-0.104l-0.875-0.101l-1.578-0.66l-0.85-0.425l-1.012-1.082l0.758,0.067l0.306-0.018L363.772,129.911
		L363.772,129.911z"/>
	<path fill="#DDDDDD" d="M376.346,145.024l0.731,0.326l0.014,0.608l0.541,0.628l0.117,0.051l-0.117,0.796l0.117,0.477l0.121,0.405
		l0.121-0.455l0.163-1.173l0.02,0.681v0.711l-0.202,0.56l-0.274,0.762l0.204,0.847l0.272-0.171l0.137-0.15l0.457-0.017v-0.169
		l-0.067-0.153l0.459,0.188l-0.087,0.389l0.167,0.507l0.341,0.492l0.036,2.472l0.186,2l0.035,0.272l0.065,0.525l0.491,0.829
		l0.155,0.102l0.234,0.12l0.341,0.184l1.454,1.018l0.271,0.323l-0.183,0.389l0.033,0.609l0.237,1.136l0.219,0.474l0.372,0.032
		l0.441,0.153l0.235,0.881l0.101,0.917l0.273,0.32l0.303,0.391l0.358,0.507l0.236,0.508l0.154,0.323l0.896-0.153l0.101,0.066
		l-0.32,0.865l-0.322,0.713l-0.065,0.389l-0.443,1.779l0.171-0.235l0.087,0.422l-0.342,1.187l-1.574,2.966l-0.387,0.797
		l-1.053,1.441l-0.477,0.694l-0.626,0.524l-2.642,2.491l-1.558,1.693l-0.765,0.897l-0.424,0.662l-0.423,0.66l-2.089,1.135
		l-3.657,1.763l-0.356,0.065l-0.627-0.578l-0.729-0.438l-0.899,0.305l-1.186,0.22l-0.473-0.372l-0.815-0.169l-0.694-0.153
		l-0.356-0.287l-0.577-0.712l0.152-1.187l0.102-1.149l-0.678-0.459l-0.17-0.611l0.356-1.32l-0.506,0.593l-0.643,0.594l-0.732,0.118
		l-0.167-0.189l0.626-0.457l0.627-0.729l0.679-0.862l0.44-0.593l0.223-0.39l0.1-0.188l-0.88,0.662l-1.02,0.761l-1.505,1.511
		l-0.595-0.104l-0.271-0.66l-0.22-1.761l-0.033-0.817v-0.201l-0.851-0.39l-0.845-0.322l-0.629-0.305l-1.981-0.272l-1.748,0.272
		l-3.269,0.745l-0.849,0.153l-0.762,0.371l-0.559,0.271l-0.374,0.154l-1.017,0.746l-0.745,0.76l-1.457-0.085l-3.644,0.491
		l-0.609,0.375l-1.034,0.424l-1.66,0.404l-1.662-0.779l-0.424-0.306l-0.151-0.746l0.49-0.439l0.863-1.118l0.221-0.455l0.257-2.088
		l0.05-2.525l-0.101-1.015l-0.17-1.37l-0.322-1.394l-0.358-1.236l0.103-0.323l0.188,0.427l0.171-0.427l0.167-0.421l0.306,0.66
		l0.134-0.966l0.119-2.187l0.423-1.118l0.594-1.561l0.271,0.256l0.102,0.507l0.205-0.439l0.847-0.746l1.149-0.778l0.799-0.49
		l0.338-0.152l0.762-0.087l0.866-0.185l0.643-0.257l0.744-0.285l1.121-0.309l2.186-1.031l0.865-1.053l0.541-1.199l0.628-1.236
		l0.743-0.646l0.239,0.711l0.201,0.423l0.237-0.284l-0.016-0.322v-0.442l0.065-0.271l0.51-0.068l0.626-0.015l0.052-0.609
		l1.019-1.186l0.101-0.374l0.34-0.355l0.336-0.189l0.258,0.033l0.252-0.066l-0.167-0.372l-0.17-0.166l1.169,0.085l0.27-0.206
		l0.745,0.102l0.528,0.61l0.273,0.323l0.168,0.372l0.132,0.085l0.85-0.118l0.594-0.424l0.15-0.543l0.371-0.593l0.359-0.372
		l0.253-0.425l1.053-1.271l0.205-0.152l0.896-0.068l1.105-0.168l-0.237-0.728l-0.439-0.609l0.2-0.086l0.428-0.052l0.423,0.188
		l0.152,0.236l0.338,0.204l0.358,0.053l0.17,0.05l0.203,0.254l0.437,0.151l0.613,0.221l0.575,0.204l0.711-0.169l0.576-0.136
		l0.253,0.152l0.357-0.236l0.187-0.152l0.103,0.203l0.168,0.391l-0.168,0.931l-0.608,0.71l-0.189,0.407l0.256,0.237l0.358-0.134
		l0.101,1.048l-0.783-0.321l-0.082-0.341l-0.339,0.289l-0.494,0.745l-0.335,0.356l0.829,0.798l0.83,0.526l0.405,0.169l0.338,0.424
		l0.44,0.424l0.54,0.423l0.982,0.68l1.085,0.679l0.95-0.733l0.323-0.521l1.117-3.646l0.253-1.287l0.237-0.897l0.39-1.254
		l0.477-0.983L376.346,145.024L376.346,145.024z M336.323,167.783l-0.171-0.256l-0.067,0.256l0.17,0.253L336.323,167.783
		L336.323,167.783z M368.517,185.065l0.034-0.254l-0.323,0.438L368.517,185.065L368.517,185.065z"/>
	<path fill="#DDDDDD" d="M366.078,188.842l0.541-0.438l0.121,0.285l0.506,0.407l1.898-0.085l0.828,0.695l-0.508,0.982l-0.457,0.39
		l-0.32,0.272l-0.46,0.744l-0.677,0.307h-0.22l-1.647,0.608l-0.523-0.762l0.139-1.017l0.268-1.035L366.078,188.842L366.078,188.842z
		"/>
</g>
<g id="europe">
	<path fill="#DDDDDD" d="M243.396,16.365l0.695-0.152l0.39,0.253l0.103,0.254l2.236,0.339l0.389,0.169l0.323,0.152l-0.865,0.356
		l-0.424,0.254l-0.813,0.237l-0.356-0.153l-1.083-0.05l-1.32-0.069l-0.15-0.288l-0.156,0.068l-0.543,0.067l-0.271-0.304
		l-0.252,0.169l-0.745,0.322l-0.594-0.067l-0.22-0.204l0.187-0.051l0.306-0.034l2.341-1L243.396,16.365L243.396,16.365z
		 M245.415,17.229l-0.423-0.169l-0.169,0.169l-0.171,0.17l-0.423,0.134l0.44,0.017L245.415,17.229L245.415,17.229z M241.095,17.467
		l-0.168-0.067l-0.17,0.186l0.17,0.067L241.095,17.467L241.095,17.467z"/>
	<path fill="#DDDDDD" d="M237.57,17.129l0.814-0.069l0.32,0.169l0.441,0.17l-0.221,0.169l-0.558,0.271l0.271,0.17l0.762,0.067
		l-0.269,0.169l-1.391-0.356l-0.172-0.152l-0.27,0.186h-1.933l0.036-0.152l-0.46-0.152l-0.541-0.22h2.459l0.201,0.169l0.069-0.119
		L237.57,17.129L237.57,17.129z"/>
	<path fill="#DDDDDD" d="M212.291,17.872l3.302,0.033l0.255-0.068l0.914-0.068l0.189,0.035l2.676,0.137l-0.22,0.475l-0.373,0.169
		l-3.489,0.237l-1.272,0.084l0.085,0.102l1.83,0.746l0.425,0.05l0.525,0.204l0.577,0.27l0.591,0.168l-0.203,0.17l-0.474,0.152
		l-1.187,0.17l-0.659-0.151l-0.559-0.188l-0.086-0.475l-1.44-0.373l-0.152,0.188l-1.003,0.848l-0.336,0.508l-1.525,0.169
		l-0.967-0.339l-0.678-0.474l-1.323-0.797l-0.643-0.084l-0.629-0.511l0.559,0.118l0.46,0.273l-0.441-0.407l-0.543-0.713l0.358-0.288
		l1.439-0.067l1.05,0.067l0.475,0.05l0.611,0.189l0.422,0.271l-0.051-0.153l-0.134-0.422l0.761-0.17L212.291,17.872L212.291,17.872z
		 M213.78,18.719l-0.371-0.271l-0.238,0.17l0.375,0.271L213.78,18.719L213.78,18.719z M210.428,19.855l-0.306-0.235l-0.323,0.085
		l0.323,0.237L210.428,19.855L210.428,19.855z M209.241,20.278l-0.17-0.168l-0.17,0.168l0.17,0.17L209.241,20.278L209.241,20.278z"
		/>
	<path fill="#DDDDDD" d="M254.156,21.245l1.373,0.046l-2.151,1.356l-3.34,1.052l-0.49,0.305l-2.017,2.034l-0.172,0.17l0.376,1.152
		l0.473,0.39l0.678,0.321l0.578,0.356l0.205,0.034l0.202,0.138l-2.338,0.101l-1.694-0.611l-0.137-0.051l-0.608,0.034l-0.371-0.321
		l-0.239-0.067l-0.847-0.56l0.423-0.405l0.135-0.51l0.188-0.424l0.761-0.44l-0.15-0.185l-0.427-0.168l0.544-0.271l0.745-1.271
		l0.271-0.271l1.744-0.712l2.948-0.475l2.526-0.406L254.156,21.245L254.156,21.245z M245.447,24.956l-0.218-0.084l-0.104,0.102
		L245.447,24.956L245.447,24.956z"/>
	<path fill="#DDDDDD" d="M220.17,28.09l0.793,0.008l0.454,0.476l0.288-0.137l0.829-0.374l0.578,0.188l0.167,0.069l2.308,0.626
		l-0.478,0.355l-0.559,0.203l0.765,0.086l0.947-0.034l1.426,0.288l1.575,0.39l2.32,0.51l1.356,0.49l0.609,0.271l0.609,0.188
		l1.695,0.83l-0.17,1.288l-5.559,0.017l-1.302-0.067l0.525,0.322l0.897,0.898l0.152,0.626l0.339,0.543l0.306,0.22l0.897,0.322
		l1.747,0.101l-0.594-0.254l-0.492-0.168l-0.232-0.169l-0.019-0.678h0.745l1.323,0.44l0.897-0.476l-0.389-0.372l0.491-0.391
		l0.747-0.389l0.812-0.525l0.545-0.254l0.354,0.271l0.694,0.187l0.492-0.034l-0.272-0.864l-0.424-0.916l-0.506-0.83l0.878-0.287
		l1.814,0.524l0.58,0.441l-0.646,0.186l-0.544,0.577l0.461,0.253l1.523,0.119l0.253-0.458l1.019-0.762l1.015-0.39l1.252-0.422
		l0.915-0.289l1.053-0.238l0.373,0.103l0.184,0.694l0.628-0.134l1.051-0.221l0.981-0.119l0.849-0.254l0.474-0.204l0.104-0.271
		l0.54,0.932l0.255,0.204l0.171-0.153l0.322-0.254l0.201-0.425l-1.829-0.83l-0.524-0.27l-0.171-0.543l1.067,0.188l2.865,0.61
		l3.861,1.321l0.714,0.883l-3.594,2.54l-0.981,0.509l0.776,2.303l1.424,5.95l0.867,2.203l-0.661,2.168l-0.797,0.339l0.101,0.83
		l0.829,1.1l1.849,0.018l1.608-0.068l0.104,1.305l0.169,1.05l0.879,0.983l0.932,0.795l-0.339,1.22l-0.744,0.152l-0.829-0.017
		l-0.594-0.254l-0.322-0.187l-0.813-0.085l-1.814-0.272l-3.526-0.151l-1.031,0.188l-1.509,0.188l-0.525,0.879l1.033,2.033
		l0.524,1.237l0.459,1l0.423,0.458l-1.016,0.542l-1.523,1.253l-0.203,0.169l-1.406,0.983l-0.338,0.627l0.031,0.221l1.069,1.493
		l1.609,2.319l1.896,1.764l0.341,0.203l-6.051-2.746l-1.104-0.966l-0.914,0.102l-1.691-0.39l-1.375-0.609l-1.133-0.44l-1.069-0.12
		l-0.829-0.101l-0.541-0.271l-0.561-0.254l-0.556-0.254l-0.542-0.305l-0.865-0.458l-0.575,0.255l-0.695,0.169l-0.508,0.169
		l-0.559,0.271l-0.644,0.204l-0.441-0.491l-0.335-0.577l-0.883-0.238l0.729-0.693l0.255-0.153l-0.46-0.134l-1.812-0.475
		l-0.424-0.253l-0.424,0.202l-0.511,0.764l-0.51,0.966l-0.456,0.644l-0.524,1.05l-0.389,0.897l-0.322,0.46l-0.17,0.542l1.002,1.813
		l0.387,0.491l-0.778,0.204l-0.915,0.339l-1.424,0.235l-0.966-0.404l-0.644,0.119l-0.558,0.133l0.202-0.051l0.068-0.066
		l-0.476-0.018l0.051,0.594l-0.168,0.185l-0.086,0.118l-0.168,0.22l-0.187,0.051l-0.646-0.271l-0.592-0.271l0.625,1.22l0.342,0.509
		l0.524,0.508l0.491,0.39l0.695,0.695l0.355,0.237l0.087,0.644l-0.271-0.067l-0.253-0.543l-0.257-0.084l-0.271-0.102l-0.206,0.118
		l-0.336,0.272l-0.287,0.289l-0.206,0.354l-0.541-0.221l0.033,0.305l0.119,1.611l-0.169-0.425l-0.17-0.423l-0.167,0.169l-0.171,0.17
		l-0.169-0.253l-0.405-0.153l-0.525-0.491l-0.762-1l-0.457-0.102l-0.271-0.389l-0.038-0.424l-0.016-1.152l-0.49-0.271l-0.256-0.678
		l-0.255-0.407l-0.371-1.337l0.101-1.05l-0.881-0.643l-1.15-0.627l-0.407-0.169l-0.644-0.187l-0.118-0.153l0.424-0.134l-0.424-0.018
		l-0.732-0.356l-0.524-0.341l-0.947-0.846l-0.068-0.391l-0.151-0.559l-0.087-0.169l-0.204,0.457l-0.17,0.238l-0.169-0.475
		l-0.152-0.136l-0.712-0.458l0.051-0.575l-0.829,0.067l-0.389,0.729v0.338l0.644,1.306l1.053,1.202l0.594,0.915l1.319,0.661
		l0.848,0.051l-0.034,0.322l1.001,0.864l1.763,1.729l-0.438,0.085l-0.339-0.424l-0.561-0.221l-0.709,0.373l0.203,0.679l0.083,1.066
		l-0.336,0.407l-1.171,0.981l-0.456,0.321v0.711l-0.608,0.797l-0.526-0.338l-0.322-0.22l-1.999-1.186l1.288-0.407l2.778-0.625
		l0.169-0.357l-0.084-0.813l-0.762-0.966l-0.508-0.455l-0.272-0.273l-0.711-0.473l-0.831-0.459l-2.083-1.473l-0.338-0.137
		l-0.338-0.235l-0.271-0.459h-0.41l-0.321,0.103l0.103-0.338l0.101-0.577l-0.22-0.593l-1.795-0.831l-0.408,0.39l-0.659,0.424
		l-1.052,0.609l-1.558,0.255l-2.832,0.473l0.17,0.543l-1.084,1.472l-1.136,0.459l-1.881,2l0.169,1.169l0.034,0.474l-0.423,0.254
		l-0.474,0.661l-0.783,0.746l-0.777,0.61l-0.542,0.509l-1.323,0.017l-2.405,0.796l-1.289-0.609l-1.338-0.763l-1.119,0.135
		l-0.611-0.406l-0.05-1.577l-0.219-0.203l-0.153-0.253l-0.017-0.508l0.034-0.511l0.152-0.219l0.846-3.066l-0.202-1.577l0.525-0.897
		l0.593-0.34l1.169-0.22l1,0.151l4.694,0.323l1.17-0.795l0.373-2.594l-0.068-0.389l-0.152-0.204l-0.052-0.169l-0.151-0.17
		l-0.27-0.151l-0.271-0.424l-0.053-0.271l-0.151-0.339l-0.797-0.168l-0.086,0.168l-0.102-0.254l-1.032-0.524l-0.221-0.069
		l-0.221-0.169l0.051-1l1.915-0.237l0.848,0.136l0.372-1.237l0.356-0.271l0.713,0.355l1.168-0.119l0.882-0.507l0.813-0.794
		l0.981-0.882l2.561-2.339l1.659-1.018l0.915-0.186l1.034-0.138l0.863-0.66l-0.017-0.256l0.188-0.27l-0.235-0.085l-0.321-0.05
		l0.05-0.354l-0.034-0.628l0.865-2.507l0.693-0.253l0.44-0.256l0.235-0.169l0.137-0.168l0.018,1.1l0.186,0.594l0.17,0.592
		l-0.087,0.255l-0.084,0.255l-0.171-0.204h-0.187l-0.103,0.409l1.137-0.288l1.238-0.356l0.116-0.22l0.171-0.306l-0.424-0.677
		l-0.593-0.762l-0.34-0.56l-0.338-0.881l-0.235-0.593l-0.323-0.389l-0.103,0.017l-0.729,0.644l-1.304,0.781h-2.559l-0.679-0.764
		l-0.152-0.339l0.017-1.118l-0.119-0.339l-0.234-1.187l0.54-1.591l0.661-0.238l0.137-0.067l0.424-0.271l0.421-0.256l0.494-0.271
		l0.406-0.372l0.136-0.185l0.439-0.189l0.543-0.051l1.017-0.456l0.88-0.747l-0.015-0.271l0.219-0.186l1.135-1.117l0.339-0.525
		l0.338-0.235l0.847-0.763l0.85-0.933l0.253-0.321l0.256-0.153l-0.508-0.018l-0.509,0.087l-0.595,0.185l-0.761,0.051l1.388-0.558
		l0.087-0.152l0.66-0.611l0.899-0.086l0.271,0.138l0.34,0.101l0.05,0.119l0.084-0.458l0.849-0.593l0.629-0.322l1.508-0.236h0.102
		l0.271-0.189l1.253-0.355l1.237-0.34l0.441,0.205l0.306-0.171l0.678-0.287L220.17,28.09L220.17,28.09z M220.93,28.412l-0.063-0.17
		l-0.187,0.17l0.066,0.17L220.93,28.412L220.93,28.412z M222.795,28.311l-0.356-0.069l-0.235,0.17L222.795,28.311L222.795,28.311z
		 M215.001,29.938l-0.255-0.17l-0.253,0.069l0.253,0.168L215.001,29.938L215.001,29.938z M213.306,30.276h-0.338l0.052,0.17
		L213.306,30.276L213.306,30.276z M211.511,31.395l-0.235-0.119l0.167,0.271L211.511,31.395L211.511,31.395z M212.851,31.242
		l-0.222-0.085l-0.202,0.085H212.851L212.851,31.242z M220.406,34.954l-2.188,0.085l-0.139,0.084l-0.543,0.439l-0.152,0.662
		l-0.386,0.728l-0.8,0.61l-1.54,0.762l-0.493,0.492l-0.473,0.762l-0.118,0.729l0.49,1.117l1.22,0.899l-0.033,0.593l-0.255,0.457
		l-0.374,0.391l-0.475,0.169l-0.455,0.152l-0.408,0.237l-0.234,1.492l0.305,0.168l0.188-0.102l-0.525,1.508l-0.221-0.17l-0.17,0.035
		l-0.629,0.303l-1.253,0.763l-0.829,0.339l-0.864-0.422l-0.134-0.139l-0.22,0.306l-0.086,0.119l-0.103,0.358v0.151l0.307,0.051
		l-0.169,0.17l-0.358,0.253l-0.236,0.169l-0.829,0.678l0.762-0.185l2.103-0.322l1.574,0.425l1.222-0.425l2.542-0.254l0.862,0.204
		l0.405-0.46l0.29-0.253l0.776-1.355l0.966-2.322l1.119,0.39l0.729,0.575l0.152-1.691l-0.373-0.153l-0.778,0.168l-0.323,0.153
		l-0.405,0.205l-0.374-0.424l0.152-0.46l0.068-0.354l0.677-0.306l0.205,0.221l0.254,0.337l0.051-0.287l2.237-1.016l2.542,0.016
		l0.459-0.271l0.22-0.543l-1.609-0.237l-1.29,0.271l-0.372,0.085l-1.491,0.254l-1.305,0.153l-0.627-0.289l-0.542-0.305l-0.255-0.17
		l-0.236-0.848l-0.102-1.167l-0.304-0.627l0.084-0.575l-0.017-0.34l-0.153-0.289l0.372-0.083l1.237-0.612l0.237-0.134l1.322-1.339
		l0.287-0.135l0.354-0.22L220.406,34.954L220.406,34.954z M207.208,36.579l-0.679,0.137l-0.253,0.338l-0.087,0.254l-0.051,0.253
		L207.208,36.579L207.208,36.579z M204.105,38.512l-0.22-0.085l-0.101,0.101L204.105,38.512L204.105,38.512z M207.714,49.085
		l-0.338-0.22l-0.337,0.068l0.185,0.151l0.066,0.17l0.153,0.067L207.714,49.085L207.714,49.085z M217.917,49.118l0.116-0.286
		l-0.321,0.322L217.917,49.118L217.917,49.118z M206.868,49.407l-0.426,0.017l-0.016,0.356l0.678-0.322L206.868,49.407
		L206.868,49.407z M201.021,52.456l-0.22-0.048l-0.05,0.237L201.021,52.456L201.021,52.456z M238.723,60.591l0.167-0.305
		l-1.796,0.405l-0.83,0.188l-0.967,0.558l-0.455,0.491l0.355,0.46l0.512,0.286l1.152-0.084l1.116-0.356l0.391-0.609l-0.102-0.272
		l-0.39-0.356l0.133-0.168L238.723,60.591L238.723,60.591z M219.576,73.028l-0.407-0.306l-0.221,0.254l0.17,0.543l0.271-0.034
		l0.254-0.255L219.576,73.028L219.576,73.028z M222.795,72.637h-0.423l0.388,0.169L222.795,72.637L222.795,72.637z M221.729,73.249
		l-0.221-0.085l-0.101,0.102L221.729,73.249L221.729,73.249z M222.066,73.857l-0.015-0.321l-0.086,0.221L222.066,73.857
		L222.066,73.857z"/>
	<path fill="#DDDDDD" d="M173.928,33.936l1,0.09l0.542,0.676l0.307,0.153l0.339-0.051l0.255-0.272l0.592-0.067l0.271,0.018
		l1.22-0.306h1.441l0.372-0.254l0.764-0.084l0.728,0.068l0.288,0.169l-0.119,0.271l0.138,0.151l0.404,0.355l0.511,0.526
		l-2.186,1.421l-2.475,0.814l-2.846-0.102l-1.339-0.204l-0.814-0.188l0.423-0.235l0.289-0.609l-1.289-0.204l-0.085,0.133
		l-0.27-0.169l0.879-0.407l-0.153-0.491l-0.745-0.202l0.474-0.256l0.139-0.219l0.337-0.238L173.928,33.936L173.928,33.936z"/>
	<path fill="#DDDDDD" d="M188.517,39.207l0.491,0.067l0.253-0.035l0.153-0.033l-0.17,0.305l-0.084,0.253l-0.069,0.254l-0.067,0.39
		l-0.187,0.051l-0.084-0.355l0.084-0.322l-0.288-0.101L188.517,39.207L188.517,39.207z"/>
	<path fill="#DDDDDD" d="M192.143,43.375l0.885,0.011l-0.441,0.561l-0.204,0.389l-0.305,0.339l-0.627,0.339l-0.084,0.17l1.101,0.168
		l0.949,0.61l-0.271,0.475l-0.339,0.441l-0.034,0.847l0.95,1.221l0.458,0.643l0.931,0.932l0.204,0.661v0.763l0.067,0.051
		l1.508,0.321l-0.628,1.288l0.018,0.561l0.254,0.186l-2.151,0.729l-0.729,0.101l-1.204,0.086l-1.458,0.255l-0.762,0.219
		l-0.865,0.169l-1.032,0.102l0.491-0.404l0.592-0.442l1.169-0.829l-0.678-0.405l-0.151-0.881l0.169-0.777l-0.424,0.067l0.391-0.372
		l0.203-0.426l-0.169-0.083l0.643-0.102l0.814-0.035l0.034-1.135l-0.237-0.525h-1.271l-0.305-0.221l-0.036-0.355l0.255-0.27
		l-0.407-0.154l-0.509-0.204l0.169-0.051l0.17,0.067l-0.44-0.221l-0.575-0.203l0.474-0.355l0.168-0.254l-0.305-0.321l-0.338-0.067
		l-0.339,0.017l0.593-0.356l0.491-0.373l-0.254,0.051l-0.153,0.101l0.051-0.17L188.432,46l0.033-0.473l0.424-0.085l1.118-0.982
		l0.678-0.323l1.271-0.355L192.143,43.375L192.143,43.375z M188.906,45.696l-0.066-0.169l-0.188,0.169l0.068,0.169L188.906,45.696
		L188.906,45.696z"/>
	<path fill="#DDDDDD" d="M186.587,48.713l2.354,0.44l-0.119,1.15l-0.423,0.864l-0.203,1.323l-0.729,0.66l-1.304,0.409l-2.169,0.456
		l-0.288-0.067l-0.152-0.086l-0.05-0.204l0.491-1.117l0.252-1.017l-0.202-0.56V50.66l-0.05-0.391l0.915-0.237l0.864-0.103
		l-0.085-0.167L186.587,48.713L186.587,48.713z"/>
	<path fill="#DDDDDD" d="M205.274,66.232l0.07,1.712l0.117,0.881l0.256,1.389l-0.476,1.626l-0.476,0.204l-0.575,0.101l-0.119-1.641
		l-0.151-0.662l-0.135-0.644l0.22-0.102l0.592-0.102l0.169-0.511l-0.475-1.472l0.457-0.41L205.274,66.232L205.274,66.232z"/>
	<path fill="#DDDDDD" d="M222.576,76.822l0.236,0.068l0.288,0.085l0.235,0.05l0.9,0.205l1.169,0.304l0.188,0.034l0.102-0.153
		L225,77.941l-1.017-0.035l-0.813-0.287l-0.712-0.407L222.576,76.822L222.576,76.822z"/>
</g>
<g id="southamerica">
	<path fill="#DDDDDD" d="M100.591,111.001l1.057,0.329l-0.745,0.797l-0.272,0.338l0.17,0.34l0.051,0.289l0.389-0.068l0.966-0.46
		l0.458-0.678l0.236-0.661l0.442,0.51l0.388,0.388l1.475,1.119v0.441l1.441-0.119l1.439,0.135l1.625,0.44l0.405-0.44l0.136-0.22
		l1.729-0.101l1.287,0.186l-0.576,0.253l-0.134,0.271l0.103,0.457l0.168-0.053l0.374-0.033l0.507,0.205l0.307,0.134l0.389,0.289
		l0.238,0.881l0.406,0.51l2.203,1.286l0.322,0.746l0.152,0.39l0.898,0.66l2.169,0.863l2.728,0.239l0.746,0.27l1.152,0.933
		l0.966,0.795l0.678,1.189l0.593,2.015l0.576,0.51l0.287,0.967v1.219l0.441,0.339l0.864,0.457l0.373,1.151l0.067,0.372l1.252-0.878
		l1.406,0.438l0.237,0.051l0.134,0.017l1.39,0.593l0.169-0.169l0.17,0.188l0.253,0.438l0.204,0.458l0.711,0.695l0.271-0.066
		l1.355,0.255l0.576,0.153l0.627,0.133l1.186,0.088l1.679,0.372l1.863,1.407l2.475,1.455l1.1,0.236l0.527,1.575l0.05,3.729
		l-2.067,2.878l-1.137,1.931l-0.93,1.357l-0.474,2.12l0.067,2.201l-0.441,3.068l-0.203,1.133l-0.134,1.291l-1.187,3.012
		l-0.423,0.681l-0.643,0.745l-1.017,0.477l-3.202,0.879l0.084,0.152l0.187,0.17l-0.594,0.067l-0.593,0.066l-0.507,0.288
		l-0.509,0.253l-1.542,1.577l0.101,2.472l-0.578,2.712l-1.017,2.337l-0.423,0.627l-0.153-0.475l-0.187-0.388l-0.271,0.374
		l-0.423,0.931l-0.338,0.643l0.747-0.491l0.235-0.085l-0.474,0.832l-0.696,1.118l-0.763,1.544l-0.219,0.524l-2.219,1.253
		l-1.948-0.439l-0.542-0.152l-0.865-0.305l-0.271,0.049l0.627,0.629l1.221,1.253l0.526,0.914l0.135,2.118l-0.152,0.457l-4.152,1.491
		l-0.661,0.205l-0.188,0.065l-0.017,0.222l0.186,0.917l0.068,0.692l-0.238,0.916l-1.931-0.068l-0.83-0.203l0.271,0.967l0.406,0.898
		l0.746-0.104l0.915,0.238l-0.069,0.849l-0.762,0.489l-0.508,0.476l0.271,0.729l0.068,0.847l-0.034,0.239l-0.372,0.438l-1.12,1.713
		l1.831,0.998l0.916,0.782l0.169,0.507l-0.441,0.695l-0.797,1.492l-0.423,1.169l-0.424,0.457l1.44,2.086l0.39,0.474l0.813,1.068
		l3.71,1.948l0.593,0.337l-0.271,0.339l-0.067-0.255l0.033-0.254l-0.271,0.254l-0.338,0.255l-0.169,0.254l-0.864,0.17l-0.661,0.167
		l0.204,0.358l-0.39-0.103l-1.017-0.204l-0.763-0.153l-0.152-0.065l-0.271-0.085l-0.254-0.087l-0.626-0.116l-0.61-0.204
		l-0.289-0.271l-0.17-0.052l-0.542,0.016l-0.542-0.391l-0.254-0.254l-0.169-0.475l-0.864-0.219l0.324,0.066l0.405,0.186l-0.39,0.271
		l-0.506-0.236l-0.745-0.46l-0.054-0.218l-0.389-0.29l-0.696-0.336l-0.236-0.409l0.932,0.102l-0.137-0.153l-0.525-0.319l-0.78-0.288
		l-0.729-0.474l-0.388-0.391l-0.134-0.509l-0.305-0.694l-0.372-0.052l-0.272-0.51l-0.373-0.711l-0.593-1.22l-0.118-0.118
		l-0.441-0.881l-0.118-0.238l0.237-0.305l0.44-1.118l-0.067-0.271l-0.069-0.152l-0.542-0.102h-0.441l-0.609-0.085l0.152-0.509
		l0.134-0.746l0.101-0.508l0.188-0.423l-0.864-0.576l0.016-0.373l0.407-0.322l0.05-0.643l0.084-0.206l0.576,0.711l0.051,0.404
		l0.44-0.166l0.117-0.255l-0.287-0.967l-0.253-1.407l-0.068-0.726l-0.085-0.139l-0.188-0.233l-0.168-0.358l-0.068,0.17l-0.17,0.15
		l-0.068,0.41l0.068,0.202l0.068,0.256l0.086,0.256l0.066,0.235l0.018,0.594l-1.084-0.628l-0.204-1.054l0.084-0.504l-0.118-0.34
		l-0.441-2.542l-0.339-1.22l-0.441-0.982l-0.235-0.491l-0.359-0.746l0.154-0.357l0.271-0.287l0.084-1.252l0.271-3.729l-0.017-1.066
		l-0.169-0.713l-0.169-0.321l-0.34-1.136l-0.254-1.661l-0.136-1.354l-0.117-0.881l-0.204-7.523l-0.136-0.425l0.136-0.423
		l-0.525-5.796l-1.052-1.493l-0.594-0.625l-0.593-0.456l-0.593-0.459l-0.542-0.305l-4.083-2.594l-1.035-1.896l-1.305-2.239
		l-0.152-0.389l-0.339-0.609l-0.338-0.558l-0.307-0.681l-0.881-1.728l-0.932-1.777l-0.83-1.376l-1.22-1.236l-0.576-0.863
		l-0.084-0.661l-0.339-0.949l0.542-1.407l0.848-0.711l0.303-0.643l-0.085,0.103l-0.17,0.203l-0.169-0.187l-0.542-0.68l-0.358-0.491
		l-0.033-1.51l0.253-0.354l0.339-0.612l0.254-0.51l0.254-0.744l0.779-0.949l0.661-0.694l0.169-0.491l0.254-0.476l0.594-0.609
		l0.593-0.455l0.153-0.222l0.372-1.508l-0.018-0.442l-0.118-3.643l-0.44-0.644l-0.255-1.355l0.018-0.153l-0.288-0.183l-0.526-0.545
		l-0.424-0.71l0.153-0.476l2.203,1.322l0.645,0.511l0.39-0.593l0.51-0.44l0.661-0.628l0.17-0.139l1.473-2.167l0.475-0.154
		l0.713-0.253l1.033-0.34l0.66-0.335l0.238-0.309L100.591,111.001L100.591,111.001z M101.303,114.998l-0.22-0.796l-0.222-0.39
		l-0.304,0.355l-0.103,1.019l0.338,0.659L101.303,114.998L101.303,114.998z M104.472,152.157l-0.678-0.049l0.305,0.338l0.323,0.288
		l0.271,0.052L104.472,152.157L104.472,152.157z M137.225,163.12l-0.186-0.167l-0.067,0.167l0.186,0.169L137.225,163.12
		L137.225,163.12z M130.907,174.169l-0.017-0.323l-0.083,0.22L130.907,174.169L130.907,174.169z M118.671,191.756l-0.356-0.168
		l-0.236,0.168l0.355,0.17L118.671,191.756L118.671,191.756z M109.505,194.555l-0.067-0.258l-0.188,0.409L109.505,194.555
		L109.505,194.555z M109.182,195.164l-0.255-0.355l0.034,0.421L109.182,195.164L109.182,195.164z M109.945,195.722l-0.254-0.065
		l-0.254,0.167l0.254,0.069L109.945,195.722L109.945,195.722z M117.571,206.497l-0.17-0.425l0.068,1.019l0.305,0.219l0.405,0.121
		l0.188,0.186l0.253-0.389l-0.118-0.188L117.571,206.497L117.571,206.497z M116.468,206.482l-0.321-0.052l-0.067,0.236
		L116.468,206.482L116.468,206.482z"/>
	<path fill="#DDDDDD" d="M127.993,203.941l0.593-0.033l1.033,0.102l1.067,0.271l-0.524,0.713l-1.135,0.488l-0.017-0.931
		l-0.408,0.288l-1.051,0.392l-0.237-0.529l0.051-0.558l0.035-0.15L127.993,203.941L127.993,203.941z"/>
</g>
<g id="northamerica">
	<path fill="#DDDDDD" d="M169.759,14.875l9.16,0.237l1.797,0.338l1.016,0.339l-0.542,0.169l-0.134,0.271l-0.188,0.44l0.644-0.085
		l0.68-0.442l0.204-0.067l0.287,0.288l0.254,0.153l0.271-0.271l0.221-0.205l0.151,0.153l0.865,0.169l2.202-0.118l1.084,0.66
		l-1.286,0.356l-0.68,0.135l-0.506,0.152l-0.541,0.272l-0.731,0.289l-0.848,0.253l-0.914,0.389l0.05,0.153l-0.188,0.287
		l-0.575,0.186l-1.084,0.238l0.083,0.339l0.357-0.017l0.559,0.357l0.222,0.304l-0.594,0.052l-0.237,0.05l0.762,0.136l0.694,0.321
		l-0.188,0.306l-0.438,0.511l-0.305,0.168l-0.103-0.219l-0.068-0.153l-0.491-0.339l-0.542,0.406l0.134,1.542l-0.221,0.339
		l0.831-0.033l0.61-0.695l0.389,0.17l0.169,0.168l0.169,0.169l-0.372,0.052l-0.458,0.135l-1.728,0.813l-0.575,0.016l-0.119,0.119
		l-0.542,0.729l-1.119,0.526l-0.203,0.321l-0.085,0.152l-0.763,0.475l0.134,0.187l0.577,1.033l-0.237,0.847l-2.134-0.186
		l-0.153-0.423l-0.541-0.306l-0.441,0.374l-0.339,0.405l2.118,0.425l0.983,0.117l-1.153,0.474l-1.288,0.493l-0.83,0.337
		l-5.693,1.288l-0.897-0.119l-0.323,0.052l-0.643,0.373l-1.306,0.847l-1.778,1.049l-1.136,0.46l-0.392,0.034l-0.168,0.068
		l-0.254,0.185l-0.255,0.17l-1.168-0.235l-0.119,0.016l-0.661,0.221l-0.695,0.152l-1.101,0.577l-0.034,0.305l-0.271,0.678
		l-0.356,0.576l-0.288,0.323l-0.762,0.524l-0.881,0.594l-0.543,0.625l-0.677,1.034l-0.66,0.882l-0.306,0.337l-0.373,0.374
		l-1.492,0.509l-0.66-0.271l-0.304-0.339l-1.898-0.594l-0.644-0.185l-0.254-0.442l-0.442-0.762l-0.338-0.662l-0.034-0.507
		l-0.102-0.51l-0.339-1.033l-0.067-0.254l-0.034-0.796l0.067-0.628l-0.05-0.254l-0.188-0.135l-0.22-0.254l-0.051-0.474l0.577-0.914
		l0.084-0.155l-0.306-0.253l0.934-1.118l0.558-0.525l1.254-0.44l1.118-0.358l-0.033-1.219l-0.578-0.204l-0.303-0.086l0.338,0.308
		l-0.593,0.795l-1.456-0.05l-0.543-0.305l0.322-0.425l0.238-0.577l0.389-0.052l0.254-0.017l-0.103-0.254l2.187,0.018l0.373-0.169
		l-0.423-0.339l-0.34-0.221l-0.118-0.203l-0.119,0.289l-0.289,0.304l-0.357-0.185l0.271-0.084l0.153-0.052l-0.713-0.067
		l-0.846-0.204l0.237-0.727l0.271-0.473l0.168-0.409l0.119-0.17l0.069-0.491l-0.103-0.236l-0.389,0.101l0.423-0.372l0.134-0.291
		l-0.39-0.067l0.288-0.186l0.084-0.101v-0.322l-0.067-0.338l-0.27-0.576l-1.239-0.492l-4.119-0.119l-0.677-0.066l-0.424,0.034
		l-0.746,0.101l-2.168-1.271l-0.34-0.22l-0.338-0.151l1.017-0.119l0.848-0.102l-0.406-0.138l-0.745-0.203l-0.441-0.187l0.458-0.236
		l5.642-0.882l2.374-0.694l-0.78-0.169l-0.712-0.205l4.913-0.981l1.238-0.27l0.202-0.339l-2.797,0.476l-0.847,0.084l-0.424,0.017
		l-4.32,0.982l-0.78,0.305l-1.475,0.339l-2.71,0.71l-0.679,0.409l-0.422,0.185l-0.645,0.086l-0.287,0.051l-1.254,0.422l-1.355,0.34
		l-0.881,0.271l-0.475,0.17l0.321,0.067l0.441,0.152l-1.441,0.629l-0.473,0.338l-0.525,0.338l-0.052-0.338l-0.644-0.085
		l-0.678-0.068v-0.185l-1.354,0.017l-3.17,0.05l-2.27,0.136l-0.474,0.136l0.813,0.44l0.915,0.137l1.492-0.137l4.643,0.254
		l-1.016,0.828l-2.966,0.188h-0.355l-3.237,0.085l-3.98-0.253l0.523-0.916l0.493-0.22l-0.068-0.306l-1.593-0.035l-0.204,0.321
		l0.018,0.254l-0.221,0.628l-1.305,0.39l-0.831,0.05l-0.254,0.152l-0.035-0.339l-0.102-0.237l-0.085-0.321l-0.101-0.203
		l-0.525,0.135l-1.458,0.323l-1.238-0.255L109.2,22.99l-1.17-0.559l-0.084-0.117l0.711-0.73l1.034,0.559l0.085,0.254l0.169-0.151
		l0.915-0.511l2.05-0.102l0.423-0.034l0.61,0.051l-0.204,0.727l-0.491,0.44l1.168-0.083l1.238-0.153l-0.424-0.966l-0.034-0.102
		l0.339-0.22l1.796-0.153l0.491,0.153l0.525,0.186l0.864,0.068l1.067,0.171l0.44,0.067l-0.066-0.086l-0.204-0.049l0.78-0.305
		l1-0.138l1.305-0.133l0.27-0.255l0.153-0.441l1.78,0.103l0.404,0.067l-2.779-0.506l-2.576-0.441l-0.035-0.524l-0.22-0.17
		l-0.492-0.475l0.746-0.712l1.15-0.305l0.373-0.187l0.578-0.17l0.696-0.168l0.932-0.171l1.151,0.339l0.729,0.408l0.355,0.287
		l0.152,0.017l0.576-0.22l-0.203-0.186l-0.56-0.406l-0.339-0.238l-0.338-0.151l3.118-0.441l2.253-0.255l1.626-0.033l1.39-0.084
		l9.032-0.475l6,0.22l0.847,0.205l0.44,0.406l0.881,0.017l2.999-0.202l1.915,0.202l0.22,0.016l1.78-0.016l0.271-0.152l0.526-0.27
		l0.509-0.169l0.356,0.067l0.559,0.152l0.425,0.102l0.403,0.187l-0.134-0.355l-0.422-0.358l0.422,0.052l0.933-0.067l2.795-0.22
		L169.759,14.875L169.759,14.875z M163.1,16.128l-0.018-0.237l-0.338,0.136l-0.035,0.237L163.1,16.128L163.1,16.128z
		 M179.417,16.213h-0.508l-0.085,0.152L179.417,16.213L179.417,16.213z M128.193,16.484l-0.22-0.084l-0.102,0.101L128.193,16.484
		L128.193,16.484z M129.042,17.703l0.22-0.134l-1.406,0.44l0.337,0.085L129.042,17.703L129.042,17.703z M131.719,17.569l-0.576,0.05
		l0.288,0.44l0.135-0.067l-0.033-0.254L131.719,17.569L131.719,17.569z M128.923,18.703l-0.289-0.287l-0.135,0.135l0.305,0.271
		L128.923,18.703L128.923,18.703z M128.585,18.991l-0.169-0.064l-0.169,0.186l0.169,0.068L128.585,18.991L128.585,18.991z
		 M125.367,19.686h-0.238l-0.152,0.254L125.367,19.686L125.367,19.686z M141.852,20.738l-0.22-0.085l-0.205,0.085H141.852
		L141.852,20.738z M139.31,20.907l-0.221-0.087l-0.204,0.087H139.31L139.31,20.907z M111.386,21.99l-0.289-0.186l0.035,0.253
		L111.386,21.99L111.386,21.99z M108.708,22.246l-0.221-0.086l-0.102,0.103L108.708,22.246L108.708,22.246z M175.775,25.193
		l-0.186-0.169l-0.068,0.169l0.187,0.169L175.775,25.193L175.775,25.193z M175.403,25.702l-0.389-0.153l-0.46,0.17l0.289,0.474
		l0.373,0.408l0.153-0.135L175.403,25.702L175.403,25.702z M176.926,25.652l-0.302-0.085l-0.204,0.085H176.926L176.926,25.652z
		 M176.994,25.973l-0.22-0.085l-0.103,0.101L176.994,25.973L176.994,25.973z M145.106,36.682l-0.203-0.205l-0.103,0.087
		L145.106,36.682L145.106,36.682z"/>
	<path fill="#DDDDDD" d="M112.317,18.737l1.102-0.032l0.762,0.168l0.966,0.321l0.271,0.747l-0.881,0.506l-0.813-0.185l-1.424-0.254
		l-1.337-0.168l0.255-0.34l0.337-0.46L112.317,18.737L112.317,18.737z"/>
	<path fill="#DDDDDD" d="M105.251,19.5l2.151-0.07v0.339l-0.644,0.171l-0.271,0.203l-0.458,0.085h-0.357l-1.456,0.661l-1.39-0.442
		l1.339-0.253l0.966-0.119l-0.764-0.134L105.251,19.5L105.251,19.5z"/>
	<path fill="#DDDDDD" d="M98.085,20.771l2.269,0.101l-0.508,0.272l-0.322,0.137l-0.339,0.254l0.578,0.323l1.608,0.813l0.899,0.135
		l0.693-0.101l0.085-0.389l0.119-0.17l0.881-0.51l0.831-0.067l0.084-0.067l0.035-0.205l0.086,0.627l-0.271,0.404l0.795-0.033
		l0.238,0.762l-2.423,0.542l-3.574,0.423l-2.916-0.203l-0.677-0.254l-1.016-0.221l0.184-0.338l0.459-0.27l-0.441,0.083l-0.88,0.169
		l-0.118-0.271l-0.222-0.135l-0.54-0.103l-0.357,0.103l-0.491,0.085l-0.576-0.152l0.085-0.526l0.965-0.186l0.95-0.151L98.085,20.771
		L98.085,20.771z M97.728,22.33l-1.098-0.302l-0.745,0.067l0.134,0.134l0.542,0.069L96.272,22.5l0.103,0.169l0.592,0.085
		l-0.152-0.085L96.696,22.5l1.016-0.085l0.797,0.051L97.728,22.33L97.728,22.33z M98.338,21.974l-0.237-0.17l-0.44,0.17l0.236,0.169
		L98.338,21.974L98.338,21.974z M98.168,23.5l-0.134-0.155L97.576,23.5l0.137,0.153L98.168,23.5L98.168,23.5z"/>
	<path fill="#DDDDDD" d="M87.868,24.126l2.104,0.008l2.542,0.119l1.863,0.695l0.542,0.422l0.102,0.474l0.339,0.019l1.271,0.084
		l1.135,0.017l1.085,0.068l0.169,0.558l-0.05,0.644l0.305-0.389l0.661-0.933l1.916-0.373l0.321,0.018l-0.204-0.238l1.221-0.458
		l1.017,0.338l-0.915,0.526l-1.627,1.762l-0.34,0.424l-0.032,0.626l1.558,0.848l-1.084,0.898l-0.102-0.237l-0.322-0.221
		l-0.169,0.305l-0.052,0.492l-0.593,0.355l-0.61,0.171l-1.305-0.222l-1.134-0.236l-0.323-0.306l-0.152,0.068h-0.355l-0.645,0.067
		l-0.459,0.238l0.51,0.068l0.406-0.084l0.137-0.086l0.287,0.475l0.204,0.169l0.441-0.086v0.237l0.39,0.271l0.408,0.153l2.015,0.236
		l2.304-0.44l0.731-0.289l0.287-0.101l-0.44-0.287l0.305-0.609l0.797-0.324l0.626-0.422l0.78,0.05l0.795,0.221l0.425-0.406
		l0.39-0.578l0.422-0.44l1.17-0.796l0.356-0.137l0.559-0.323l1.186-1.202l0.221-0.423l0.695-0.458l0.627-0.237l0.219-0.084l2-0.408
		l1.356,0.101l0.915,0.154l-3.374,1.509l-1.049,0.254l-0.848,0.473l-0.441,0.305l0.307,0.95l0.016,0.608v0.458l0.17,0.711
		l0.237,0.338l0.405,0.155l0.39,1.236l-0.406,0.948l0.677-0.016l0.441-0.34l0.726-0.796l0.138,0.17l0.746-0.288l0.847-0.473
		l0.306-0.391l0.728-0.931l-0.424-0.086l-1-0.219l-0.219-0.085l-0.712-0.254l0.763-0.729l1,0.034l-0.933-0.187l-0.982-0.221
		l0.695-0.915l0.422-0.271l5.795-1.795l0.424,0.168l-0.424,0.169l1.016-0.052l2.374,0.035h0.304l1.645-0.17l1.949,0.847
		l-0.458,0.238l-0.134,0.102l0.727,0.151l0.374,0.322l0.271,0.254l0.151,0.17l0.102,0.169l-0.034,0.289l0.017,0.083l0.983-0.202
		l0.83,0.337l0.237,0.238l0.152,0.186l0.134,0.186l0.796,0.085l1.068,1.389v0.322l-0.322,0.373l-1.001,0.474l0.576,0.373
		l0.678,0.423l0.49,0.103l0.797,0.321l0.627,0.44l0.119,0.188l0.119,0.117l0.729,0.254l0.474,0.34l-0.39,0.305l-0.626,0.322
		l-0.711,0.677l-0.611,0.138l-0.745,0.305l-1,0.408l-0.39-0.068l-0.51-0.694l-1.101-0.916l-0.423,0.052v0.118l-0.05,0.491
		l-0.188,0.287l0.594,0.899l0.558,0.609l0.068,0.68l-0.033,0.643l-0.512,0.204l-0.235,0.236l-0.202,0.34l0.017,0.151l0.119,0.34
		l-0.729-0.152l-0.491-0.441l-0.289-0.305l-0.151,0.035l-0.51-0.12l-0.356-0.236l-0.458-0.202l-0.34-0.016l0.34,0.388l0.338,0.239
		l0.424,0.524l0.39,0.713l0.169,0.388l0.202-0.101l0.56,0.151l-0.711,0.357l-0.355-0.271l-0.848-0.254l-1.253-0.339l-0.848-0.356
		l-0.879-0.169l-0.746-0.289l-0.389-0.711l-0.322-0.73l-0.221-0.288l-0.168-0.168l-0.288-0.189l-0.981-0.051l-1.306,0.17
		l-1.762-0.204l1.049-1.134l1.491-0.153h1.505l0.933-0.152l0.085-0.46l0.966-0.795l1.117-0.543l0.543-0.22l0.305-0.304l0.084-0.679
		l-0.271-0.372l-0.356-0.221l-0.101,0.018h-0.356l-0.17,0.033l0.441,0.307l0.372,0.305l-0.627,0.203l-0.626-0.356l-0.205-0.101
		l-0.236,0.404l-2.457,0.594l2.034-1.356l0.71-0.254l-0.592-0.151l-0.475-0.085l-0.051-0.425l0.051-0.438l0.525,0.182l0.372,0.153
		l0.475-0.017l-0.457-0.288l-0.475-0.424l-0.205-0.017l-0.083-0.152l-0.138-0.289l-0.271-0.22l-0.153,0.169l-0.592,0.39
		l-0.424,0.188l0.898-0.102l0.288,0.051l-1.525,1.05l-0.152,0.12l-0.254,0.558l-0.322,0.205l-0.204,0.101l0.271-0.459l0.169-0.356
		l0.594-0.576l-0.305-0.373l-0.965-0.153l-1.103-0.067l-0.102,0.491l0.119,0.424l-0.694,0.592l-0.916,0.966l-0.202,0.644
		l-0.61,0.423l-0.678,0.253l-0.763,0.256l-0.406,0.288l-0.44-0.102l-0.391,0.576l-0.22,0.321l-0.661-0.204l-0.288-0.542l-0.187,0.56
		l0.187,0.593l1.525,1.184l0.322,0.306l0.39,0.22l-0.424,0.509l-1.863-0.238l-0.966-0.084l-0.542,0.338l-0.881,0.339l-1.152-0.017
		l-0.526-0.287l0.018-0.561l0.762-0.407l1-1.152l0.932-0.965l-1.694,1.067l-3.338,1.542l-1.018,0.254l-0.456,0.187l-0.51,0.339
		l-0.813,0.524l-0.355,0.357l-0.103,0.052l-0.897-0.069l-0.153,0.185l-0.22,0.118l-0.609,0.254l-0.678,0.356l-0.56,0.341
		l-1.474,0.847l-1.119,0.762l-1.66,2.101l0.577,0.102l0.592,0.796l-0.339,1.578l0.729-0.188l1.186,0.086l0.948,0.355l1.053,0.983
		l0.727,0.424l0.983,0.473l1.576,0.322l1.472,0.185l-0.559,1.084l-0.137,0.409l-0.152,0.506l-0.236,0.424l0.457,0.287l0.525,0.407
		l-0.982,0.153l-0.374,0.152l0.153,0.541l0.321,0.476l0.288,0.541l0.798,0.154l0.51-0.204l0.236,0.222l0.068-0.153l0.425-0.559
		l0.542-0.949l0.169-0.644l0.136-0.509l0.169-0.405l0.084-0.746l-0.084-0.747l1.017-0.168l3.591-1.679l0.983-2.05l-1.016-1.05
		l-0.17-0.102l0.627-0.576l0.881-0.593l0.864-0.593l0.119-0.22l0.136-0.61l-0.322-0.287l0.12-0.29l1.066-1.219l0.424-0.78
		l1.405-0.186l2.594,0.22l0.101-0.186v-0.339l0.475,0.288l1.322,1.068l0.034,0.408l0.186,0.354l0.897,0.134l0.51,0.222l-0.136,0.101
		l-0.051,0.12l-0.068,0.269l-0.73,1.626l0.932,1.136l1-0.118l0.915-0.356l1.186-0.932l1.221-0.865l0.135-0.067l0.491-0.679
		l0.051,0.713l0.17,1.22l0.254,1.067l0.339,0.745l0.067,0.576l-0.117,0.492l-0.17,1.034l0.118,0.51l0.153,0.982l0.119,0.067
		l1.187,0.375l0.44,0.168l0.813,0.644l0.543,0.982l0.305,1.407l-1.034,1.371l-0.763,0.408l0.526,0.052l0.287-0.119l0.238-0.154
		l0.372,0.256l-0.271,0.254l-0.068,0.271l-0.221,0.423l-0.711,0.322l-0.576,0.492l0.56,0.117l0.306,0.408l-0.323,0.237l0.405,0.203
		l0.491-0.134l0.254-0.136l0.256,0.204l0.219-0.118l0.356-0.119l-0.101,0.22l0.169,0.152l0.119,0.611l0.102,0.525l0.288,0.188
		l-0.559,0.254l-0.289,0.068l-0.151,0.49l-0.221,0.406l0.457-0.338l0.559-0.339l0.068,0.254l-0.321,0.169l-0.137,0.169l0.152,0.254
		l0.135-0.17l0.169-0.17l-1.103,1.729l-0.44-0.594l-0.153-0.033l-0.084,0.271l-0.068,0.152l0.052-0.662l-3.711-0.439l-1.406-1
		l0.355-0.356h-0.388l0.661-0.526l0.253-0.153l0.355-0.253l0.255-0.186l2.032-2.289l0.764-0.745h-0.526l-2.135,0.777l-0.846,0.51
		l-0.492,0.271l-3.677,0.151l-4.033,0.152l-0.916,0.694l-0.796,0.493l-2.388,1.204l0.372,0.067l4.287-1.32l0.559,1.473l-0.203,0.357
		l0.46-0.102l-0.579,0.576l-0.643,0.897l0.458,1.135l0.084-0.322v-0.506l0.204-0.102l0.204-0.271l0.118,0.221l1.254,0.592
		l0.474,0.271l-0.474,0.409l-0.339,0.169l-0.339-0.136l-0.932-0.033l1.747,0.322l0.374,0.016l1.016-0.881l1.22-0.847v0.542
		l0.051,0.508l0.254,0.22l-1.238,0.796l-0.507,0.339l-0.305,0.255l-2.999,0.999l-0.391,0.017l-1.506,0.95l-0.339,0.152l-0.338,0.171
		l-0.763-0.069l-0.187-0.712l1.186-1.049l1.032-0.713l-0.557,0.017l-0.95,0.272l-0.984,0.374l-0.321,0.321l-0.881,0.253
		l-1.813,0.713l-2.542,1.744l-0.238,0.44l-0.084,0.561l0.492,0.101l0.169-0.119l-0.339,0.745l-0.441,0.188l-0.423,0.101
		l-1.118,0.134l-0.475,0.253l-1.626,0.695l-1.186,0.762l-0.932,1.17l-0.915,0.322l-0.153-0.151l-0.068,0.644l-0.355,1.017
		l-0.645,0.354l-0.084,0.035l-0.321,0.66l-0.41,0.153l0.204-0.543l0.221-0.71l-0.323,0.101l-0.253,0.813l-0.018,0.677l0.169,1.323
		l-0.355,1.321l-0.543,0.102l0.085-0.084l0.458-0.339l-0.51,0.034l-0.474,0.475l-0.627,0.66l-1.848,1.017l-0.541,0.169l-1.136,0.711
		l-1.202,0.983l-2.559,5.066l0.187,1.203l0.069,1.219l-0.424,2.763l-0.236,0.508L92.15,92.46l-0.305,0.017l-0.424-0.137
		l-0.271-0.355l-0.339-0.761l-0.338-0.542l-0.152-0.254l-0.457-1.848l0.185-0.88l-0.035-1.37l-0.456-0.68l-1.254-0.134l-1.053-0.102
		l-0.372-0.476l-4.167,0.068l-0.389,0.474l0.051,0.577l0.051,0.557l-0.442-0.035l-0.05-0.422l-0.576,0.134l-1.338,0.101l-0.22-0.254
		l-0.865-0.254l-1.051-0.187l-3.778,1.388l-2.693,3.32l-0.424,1.544l-1.425,4.319l0.119,0.763l0.187,1.136l0.305,1.015l0.39,0.814
		l0.966,1.559l0.881,0.507l0.781,0.221l2.542-0.577l2.135-1.575l0.404-1.051l0.188-0.593l1.322-0.711l2.186-0.324l1.152,0.34
		l-0.102,0.745v0.357l-0.034,0.339l-0.408,0.068l-0.153-0.068l-0.254,0.507l-0.119,0.407l-0.151,0.405l-0.203,0.763l-0.204,0.729
		l-0.423,0.662l-0.306,0.423l-0.067,0.203l-0.272,0.881l-0.575,1.169l-0.254,0.39l0.454,0.067h0.511l0.423-0.085l1.916-0.05
		l2.644,0.392l0.745,0.659l0.289,0.526l-0.103,0.457l-0.253,0.968l-0.323,1.491l-0.168,0.899l-0.169,0.44l-0.188,0.778v0.714
		l0.357,0.811l0.337,0.476l0.169,0.254l0.424,0.456l0.358,0.405l0.168,0.409h0.238l0.305,0.051l1.796-0.307l1.187-0.593
		l-0.152,1.119l-0.254,0.323l-0.508,0.456l-0.255,0.711l-0.339,1.001l-0.863-0.117l-0.679-0.357l-0.152,0.255l-0.084-0.44
		l-0.339-0.745l-0.576-0.102l-0.271,0.202l-0.39-0.066l-0.576-0.373l-0.22-0.592l-0.61-0.85l-0.576-0.559h-0.169l-0.678,0.035
		l-0.56-1.118l-1.508-2.897l-0.373-0.897l-0.542-0.153l-2.355-0.645l-1.17-0.305l-2.491-1.964l-2.185-1.408l-0.814,0.272
		l-1.983,0.306l-0.71-0.239l-1.542-0.812l-0.459-0.204l-2.728-1.441l-0.814-0.541l-1.729-0.78l-0.745-0.695l-0.966-0.898
		l-0.153-1.407l0.289-1.185l-0.44-2.271l-0.68-1.118l-0.745-1.017l-0.645-0.896l-0.355-0.459l-0.881-0.829l0.289-0.628l-0.088-0.525
		l-0.372-0.389l-0.357-0.389l-0.287-0.525l-0.221-0.526l-0.322-0.253l-0.222-0.372l-0.523-0.814l-0.221-0.222l-0.034,0.391
		l-0.12-0.662l0.102-1.373l-0.033-1.151l-0.764-0.864l-0.44-0.101l-0.695,1.085l0.119,1.54l0.474,0.324l0.407,0.44l-0.152,0.186
		L52,86.304l0.17,0.307l0.17,0.473l0.169,0.119l0.271-0.119l-0.067,0.323l-0.068,1.186l0.882,1.948l0.169,0.306l0.169,0.069
		l-0.138,0.252l0.238,1.117l0.068,0.425l-0.152,0.559l0.101,0.135l0.423,0.085l0.221,0.186l0.067-0.204l0.188,0.289l0.102,0.915
		l-0.203,0.729l-0.525,0.203l-0.221-0.321l-1.559-1.814l-0.644-0.675l0.255-0.747l0.253-0.712l-1.32-1.356l-1.561-1.644l0.306-0.103
		l0.982-0.44l-0.101-1.017l-0.695-0.831l-0.406-1.134l-0.085-0.915l-0.188-2.797l-0.762-1.355l-0.118-0.255l-0.052-0.235
		l-0.746-0.255l-0.626-0.305l-0.661-0.645l-0.238-1.576l0.018-1.152v-0.305l-0.134-0.763l-0.068-0.71l-0.067-0.407l-0.101-0.729
		l0.118-1.05l0.102-0.932l0.492-1.134l0.915-1.661l1.542-2.492l1.085-1.321l0.626-0.814l1.677-3.116l1.002-1.374l0.152-0.202
		l-0.542-0.254l-0.135-0.152l-0.171-0.256l-0.152-0.253l-0.253-0.271l-0.357-0.27l-0.051-0.355l-0.44-0.424l-0.221-0.221l0.17-0.473
		l0.39-0.475l0.051,0.053l-0.389,0.235l0.389,0.05l1.221,0.018l-0.153-0.324l-0.271-0.608l0.034-0.237l0.169-0.711l0.118-0.542
		l-0.287-0.338l0.152-0.373l-0.152-0.338l-0.204-0.763l0.084-0.271l0.509-0.524l0.287-0.205l0.322-0.084l0.152,0.034l-0.17-0.305
		l-0.084-0.558l0.084-0.456l-0.169,0.423l-0.406,0.135l-0.524,0.034l-0.813,0.289l-0.56-0.594l0.323-0.711l0.372-0.152H51.38
		l0.118-0.645l0.423-0.525l-0.355,0.27l-0.576,0.104l0.136-0.185l0.12-0.305l-0.255-0.288l0.102-0.322l0.408-1.679l-0.271-0.406
		l-0.525-0.78l-0.203-0.524l-0.204-0.05l-1-0.19l-1.762-0.219l-1.491,0.203l-0.305-0.035l0.39-0.287l-0.12-0.289h-1.066l-0.51-0.016
		l0.39-0.289l-0.018-0.507l-0.424,0.169l-0.354,0.119l-0.408,0.253l0.102,0.304l0.152-0.169l0.169-0.169l-0.593,0.679l-1.068,0.253
		l-1.677,0.12l-0.221,0.085l-1.134,0.321l-2.088,0.256L37.788,43l0.407-0.354l0.322-0.373l0.44-0.322l-0.932,0.305l-0.626,0.22
		l-0.305,0.17l-0.425,0.168l-0.524,0.254l-0.306,0.235h-0.525l-0.101,0.17l-0.56,0.694l-1.033,0.425l-0.967,0.422l-0.763,0.205
		l-0.56,0.22l-1.999,0.777l-1.052,0.406l-0.576,0.272l-0.424,0.069l-0.525,0.085l-0.153,0.085l-0.39,0.136l-1.678,0.711
		l-0.576,0.153l-0.847,0.168l-0.423,0.17l0.254,0.271l0.084,0.357l-0.44,0.135l-0.442-0.018l-0.524-0.135l-1.05-0.169l-0.238,0.084
		l-0.457,0.169l-0.661,0.153l-0.848,0.169l-0.982,0.27l-0.83,0.188l-0.507,0.018l1.864-0.951l1.981-0.558l2.813-0.711l0.321,0.017
		l2.203-1l1.611-0.559l1.101-0.474l1.525-0.879l0.339-0.713l-0.609,0.102l-0.645,0.034l-1.289-0.186l-0.576,0.067l-0.271,0.017
		l-0.558,0.017l0.102-0.186l0.559-0.424l0.593-0.506l0.491-0.424l-0.473-0.153l-1.069,0.153l-0.44-0.609l0.405-0.763l0.323-0.304
		l0.693-1.136l0.56-0.22l1.627-0.695l0.711-0.306l1.932-0.643l1.661-0.424l0.593-0.05h1.017l1.084-0.949l0.017-0.169l-0.798,0.084
		l-0.812,0.085l-1.391-0.135L32.009,35.7l0.05-0.577l0.967-0.608l3.472-0.746l1.441-0.017l-0.492,0.271l1.017,0.304l1.052-0.879
		l-0.221-0.288l-0.153-0.458l-0.525-0.982l-0.017-0.424l0.813-0.236l1.898-0.425l2.371-0.627l3.305-1.083l1.542-0.271l2.118-0.321
		l2.118-0.409l1.136-0.12l0.39,0.171l0.339,0.119l1.017,0.189l0.898,0.168l1.389,0.339l2.541,0.304l2.338,0.17l1.221,0.136
		l1.831,0.405l0.814,0.254l2.184,0.338l0.61-0.287l0.322-0.136l2.05,0.119l0.763,0.016l-0.187-0.087L72.2,29.938l3.441-0.763
		l0.661-0.186l0.22,0.151l0.204,0.287l1.37-0.693l0.424-0.085l0.186,0.777l-0.034,0.681l1.288-0.611l1.187-0.237l-0.255,0.271
		l-0.152,0.254l-0.085,0.153l-0.188-0.17l-0.17-0.171l0.17,0.425l0.881-0.152l2.337-0.017l0.441,0.254l1.033,0.286l1.78,0.252
		l1.339,0.289l-0.56,0.762l-0.39,0.406l0.662-0.167l0.202-0.037l3.675-0.254l0.712,0.05l-0.288,0.254l-0.441-0.085l0.695,0.356
		l0.626-0.102l1.61-1.186l0.677-0.133l-0.762,0.067l-1.61,0.254l-2.321,0.237l-1.491-0.237l0.203-0.475l-0.745-0.203l-1.491-0.83
		l3.355-0.611l2.017-0.152l-0.389-0.135l-2.39,0.102l-1.813-0.169l0.271-0.612l0.22-0.423l0.016-0.475l0.863-0.355l0.475-0.237
		l-2.643,0.864l-1.101,0.338l-1.406,0.271l-1.099-0.204l-0.731-0.678l-0.288-0.068l0.711-0.44l1.067-0.526l0.458-0.236l0.982-0.423
		l1-0.425l0.39-0.403L87.868,24.126L87.868,24.126z M120.535,25.617l0.254-0.239l-0.847,0.323l-0.729,0.388l0.017,0.461l0.17,0.422
		l0.305-0.543L120.535,25.617L120.535,25.617z M125.245,25.888l-0.255-0.356l-0.051,0.17l-0.204,0.457l0.459,0.288l1.186-0.204
		l-0.305-0.084L125.245,25.888L125.245,25.888z M118.976,26.837l-0.018-0.103l-0.289,0.661l0.253-0.152L118.976,26.837
		L118.976,26.837z M129.007,27.057h-0.339l-0.05,0.152L129.007,27.057L129.007,27.057z M131.464,28.412h-0.507l-0.085,0.153
		L131.464,28.412L131.464,28.412z M133.227,29.125l0.034-0.203l-0.119,0.373l-0.746,0.321l0.475,0.101l0.982-0.422l-0.439-0.101
		L133.227,29.125L133.227,29.125z M116.333,29.193l-0.221-0.086l-0.101,0.102L116.333,29.193L116.333,29.193z M132.48,29.327
		l-0.573,0.084l0.237,0.068L132.48,29.327L132.48,29.327z M75.329,29.531l-0.22-0.084l-0.102,0.101L75.329,29.531L75.329,29.531z
		 M119.434,29.599h-0.51l0.137,0.169L119.434,29.599L119.434,29.599z M121.942,29.547l-0.306-0.084l-0.286,0.084H121.942
		L121.942,29.547z M74.022,29.769h-0.423l-0.085,0.152L74.022,29.769L74.022,29.769z M110.962,29.769l-0.17-0.169l-0.17,0.169
		l0.17,0.17L110.962,29.769L110.962,29.769z M108.081,30.141l-0.78-0.018l-0.457,0.119l-0.424,0.271l0.101,0.204l0.289,0.067
		l-0.661,0.356l-0.694,0.338l-0.679,0.356l-0.016,0.104l-0.152,0.439l-0.017,0.322l0.439-0.305l0.627-0.524l2.152-0.763l-0.22-0.033
		l0.066-0.527L108.081,30.141L108.081,30.141z M70.295,30.361l0.17-0.22l-0.848,0.237L70.295,30.361L70.295,30.361z M133.837,30.242
		l-0.593-0.134l-0.594,0.067l0.594,0.135L133.837,30.242L133.837,30.242z M111.539,30.819l-0.016-0.373l-0.509,0.949L111.539,30.819
		L111.539,30.819z M124.773,30.785l-0.068-0.171l-0.271,0.171l0.069,0.17L124.773,30.785L124.773,30.785z M119.605,30.955
		l-0.07-0.17l-0.186,0.17l0.068,0.17L119.605,30.955L119.605,30.955z M125.821,30.887l-0.218-0.084l-0.103,0.102L125.821,30.887
		L125.821,30.887z M114.095,31.954l-0.254-0.066l-0.033,0.254L114.095,31.954L114.095,31.954z M103.506,32.04l-0.254-0.068
		l-0.254,0.169l0.254,0.068L103.506,32.04L103.506,32.04z M126.179,32.09l-0.306-0.084l-0.288,0.084H126.179L126.179,32.09z
		 M92.662,32.92l-0.594-0.102l0.237,0.169L92.662,32.92L92.662,32.92z M104.472,33.089l-0.22-0.084l-0.101,0.102L104.472,33.089
		L104.472,33.089z M80.885,33.327l-1.099,0.086l-2.458,0.44l-1.355,0.22l0.932,0.203l0.982,0.239l0.034-0.153l-0.542-0.238
		l-0.559-0.067l0.61-0.018l0.727,0.508H77.53l-0.56,0.221l-0.592,0.254l-0.322,0.169l-0.288,0.188l0.067,0.185l0.865-0.17
		l1.831-0.405l-0.34,0.101l-1.422,0.525l0.693-0.17l0.745-0.236l0.645-0.169l1.305-0.39l1.203-0.321l0.543-0.34l-0.848,0.102
		l-1.253-0.036l0.168-0.373L80.885,33.327L80.885,33.327z M128.076,33.31l-0.712,0.542l0.593,0.204l0.559-0.491L128.076,33.31
		L128.076,33.31z M136.785,33.479l-0.338-0.152l0.102,0.22L136.785,33.479L136.785,33.479z M40.931,33.766l-0.221-0.085
		l-0.102,0.102L40.931,33.766L40.931,33.766z M113.453,34.377l-0.509-0.542l-0.305,0.22l0.068,0.34l0.254,0.119l0.423,0.203
		L113.453,34.377L113.453,34.377z M109.352,34.954l-0.559-0.069l0.49,0.272L109.352,34.954L109.352,34.954z M37.341,36.037h-0.256
		l-0.051,0.169L37.341,36.037L37.341,36.037z M122.314,36.225l-0.407-0.102l0.154,0.253L122.314,36.225L122.314,36.225z
		 M124.433,37.563l-0.153-0.17l-0.271,0.17l0.153,0.17L124.433,37.563L124.433,37.563z M80.512,39.579l-0.674-0.438l-0.423,0.34
		l-0.645,0.626l-1.053,0.404l-0.762,0.271l-0.56-0.016v0.187l3.136-0.271l1.016-0.389l1.693-0.594l0.51-0.337L80.512,39.579
		L80.512,39.579z M129.721,40.207l-0.221-0.084l-0.103,0.101L129.721,40.207L129.721,40.207z M42.337,40.882l-0.254-0.168
		l-0.255,0.067l0.255,0.17L42.337,40.882L42.337,40.882z M40.931,41.053l-0.221-0.083l-0.102,0.101L40.931,41.053L40.931,41.053z
		 M40.218,41.29l0.052-0.153l-0.814,0.542L40.218,41.29L40.218,41.29z M34.763,42.934l-0.306-0.084l-0.204,0.084H34.763
		L34.763,42.934z M35.73,42.883l-0.578,0.084l0.238,0.067L35.73,42.883L35.73,42.883z M52.978,44.256l-0.119-0.306l-0.084,0.103
		L52.978,44.256L52.978,44.256z M53.267,44.68l-0.271-0.171l-0.069,0.171L53.2,44.85L53.267,44.68L53.267,44.68z M52.419,45.018
		l-0.237-0.017l-0.035,0.254l0.119,0.254l0.153,0.135l0.067-0.22L52.419,45.018L52.419,45.018z M30.644,45.187l-0.186-0.169
		l-0.067,0.169l0.186,0.169L30.644,45.187L30.644,45.187z M53.861,45.949l0.034-0.253l-0.306,0.186l-0.423,0.102l-0.221,0.067
		L53.861,45.949L53.861,45.949z M53.622,46.576l-0.373-0.204l-0.152,0.171l-0.085,0.169l-0.068,0.186l0.272-0.084l0.337-0.17
		L53.622,46.576L53.622,46.576z M52.504,47.12l-0.357,0.22l0.068,0.067L52.504,47.12L52.504,47.12z M53.181,47.814l-0.169-0.256
		l-0.068,0.256l0.169,0.254L53.181,47.814L53.181,47.814z M54.316,47.663l-0.22-0.086l-0.101,0.102L54.316,47.663L54.316,47.663z
		 M52.301,48.966l-0.033-0.442l-0.222,0.409l0.035,0.439L52.301,48.966L52.301,48.966z M87.849,50.966l-1.151,0.237l-0.084,0.61
		h0.374l-0.39,0.17l-0.272,0.524l0.12,0.594l0.237,0.018l0.405,0.051l0.152,0.355l0.153,0.136L87.849,50.966L87.849,50.966z
		 M130.278,50.848l-0.779,0.187l0.238,0.067L130.278,50.848L130.278,50.848z M52.675,51.458l-0.188-0.17l-0.067,0.17l0.186,0.169
		L52.675,51.458L52.675,51.458z M87.409,54.422l-0.576,0.271l-0.44,0.593l0.507-0.272L87.409,54.422L87.409,54.422z M54.468,56.473
		L54.281,56.2l0.271,1l0.355,0.678l0.138,0.103l0.356,0.101l0.152-0.152l-0.205-0.374v-0.203l-0.337-0.405L54.468,56.473
		L54.468,56.473z M96.441,57.997l-1.916,0.238l-1.084,0.221l-0.033,0.101l0.372,0.119l0.236,0.084l-1.067,0.492l0.119-0.254
		l0.152-0.255l-0.29,0.152l-0.897,0.356l-2.591,1.271l0.729-0.033l0.373,0.22l0.085,0.169l0.933-0.254l1.066-0.425l0.746-0.169
		l0.067-0.067l0.322-0.305l0.067,0.422l-0.271,0.357l0.391,0.237l1.22,0.305l1.084-0.254l0.712,0.136l0.084,0.253l0.203-0.253
		l0.238-0.814l0.016-0.405l0.119-0.357l-0.103-0.153l-0.916-0.644L96.441,57.997L96.441,57.997z M54.96,58.59l-0.356-0.201
		l-0.491,0.237l0.204,0.1L54.96,58.59L54.96,58.59z M120.026,59.082l-0.389-0.169l-0.033,0.169H120.026L120.026,59.082z
		 M121.808,61.386l-0.593-0.103l0.237,0.171L121.808,61.386L121.808,61.386z M99.524,61.708l-1.44-0.051l0.813,0.119L99.524,61.708
		L99.524,61.708z M96.39,61.895l-1.747,0.322l-0.594,0.135l-0.711,0.408l-0.17,0.253l-0.255,0.678l-2.135,3.981l1.304-0.355
		l0.746-1.169l0.967-2.084l1.305-0.95L96.39,61.895L96.39,61.895z M99.272,62.403l-1.393-0.355l-0.813,0.119l0.424,0.441
		l0.254,0.626l-0.085,0.254l-0.695,0.933l-0.662,0.762l0.405-0.238l0.611-0.304l0.304,0.659l0.051,0.729l1.002-0.965l0.626-0.899
		l0.44-0.915l0.593,0.068l0.95-0.831l-1.136-0.169L99.272,62.403L99.272,62.403z M99.676,62.166l-0.152-0.153l-0.254,0.153
		l0.153,0.135L99.676,62.166L99.676,62.166z M105.2,64.793l-0.338-0.12l-0.34,0.12l-1.135,0.135l-1.778,0.305l-0.018,0.425
		l1.491-0.052L105.2,64.793L105.2,64.793z M101.303,66.452l-0.201-0.051l-0.797,0.085l-0.339,0.254l-0.524,0.068l-1.78,0.423
		l-1.135,0.712l-0.136-0.016l-0.339-0.204v0.508l2.711-0.56L101.303,66.452L101.303,66.452z M96.982,67.385l-0.321-0.169
		l-0.441,0.169l0.322,0.168L96.982,67.385L96.982,67.385z M101.727,73.502l-0.291-0.186l0.038,0.254L101.727,73.502L101.727,73.502z
		 M101.727,76.366l-0.271-0.169l0.119,0.236L101.727,76.366L101.727,76.366z M81.734,84.838l-0.17-0.171l-0.169,0.171l0.169,0.168
		L81.734,84.838L81.734,84.838z M83.647,112.355l-0.593-0.661l-0.39,0.068l0.289,0.424l-0.018,0.32l0.305,0.237L83.647,112.355
		L83.647,112.355z"/>
	<path fill="#DDDDDD" d="M110.032,24.55L111,24.686l-0.119,0.507l-0.255,0.339l-0.764,1.069l-1.812,0.948l-2.102-0.017l-0.558-0.678
		l-0.543-0.982h1.035l0.491,0.168l0.405-0.643l0.39-0.39l1.338-0.271L110.032,24.55L110.032,24.55z M110.284,25.719l-0.56,0.101
		l0.17,0.103l0.356-0.103L110.284,25.719L110.284,25.719z"/>
	<path fill="#DDDDDD" d="M34.932,44.408l0.932-0.393l0.034,0.424l-0.576,0.373l-0.576,0.037l-0.661,0.948l-0.983,0.423l-0.592,0.22
		l-0.746,0.187l-0.61-0.61l1.356-0.576l0.338-0.169l0.594-0.255l0.49-0.118L34.932,44.408L34.932,44.408z"/>
	<path fill="#DDDDDD" d="M88.936,95.191l3.949,0.795l0.188,0.205l0.542,0.118l0.169-0.084l0.627,0.052l0.357,0.133l0.102,0.087
		l1.727,1.471l0.713,0.491l0.422,0.271l0.95,0.425l0.492,0.41l-0.492,0.203l-4.219,0.083l-0.186-0.439l-0.254-0.425l-0.255-0.424
		l-0.254-0.626l-0.373-0.339l-1.236-0.306l-1.104-0.422l-1.524-0.509l0.305-0.221l-0.408-0.103l-1.085,0.323l-0.661,0.337
		l-0.678,0.322l-0.797,0.22l-0.017-0.441l0.119-0.271l0.017-0.167l0.56-0.323l1.084-0.506L88.936,95.191L88.936,95.191z
		 M95.12,99.071l-0.525-0.17l-0.407,0.17l0.526,0.17L95.12,99.071L95.12,99.071z"/>
	<path fill="#DDDDDD" d="M100.15,99.918l0.848-0.047l1.05,0.136l2.304,0.525l0.355,0.236l0.966,0.592l0.34,0.831l-0.185,0.321
		l-0.153,0.119l-0.339-0.169l-1.61-0.086l-0.525,0.086l-0.762,0.441l-0.425,0.592l-0.338-0.474l-1.373-0.476l-0.932,0.121
		l-0.746-0.137l-0.372-0.559l1.066-0.134l1.339-0.256l-0.204-0.676l-0.308-0.477V99.918L100.15,99.918z"/>
</g>
</svg>
