<svg version="1.1" id="Layer_1" xmlns="http://www.w3.org/2000/svg" xmlns:xlink="http://www.w3.org/1999/xlink" x="0px" y="0px"
	 width="598px" height="598px" viewBox="0 0 598 598" enable-background="new 0 0 598 598" xml:space="preserve">
<g id="landmarks-nl-provinces">
	<g id="nl-nb">
		<path fill="#DDDDDD" stroke="#FFFFFF" d="M372,382l2,2v2l1,2l2,2h5l2,2l1,7l2,2v2v1l1,1l2,1l2,4v1l1,1l1,6l1,1v2l-2,2l-3-2l-1-1
			l-6,2l-4,1h-1l-5-2h-4l1,12l3,12l5,6l3,6l-5,4l-3,2l-4,1l-8,3l-13,4l-2,3l-1,2l-2,4l-1,6l-1,2l-1,1h-1h-1l-3,1l-2,1l-1-1v-5l-1-3
			l-2-3l-3-2l-3-1l-2,2l-6,3l-2,1h-15l-4,1h-1l-2-1v-7l-2-3h-2l-5,1l-2-2l-1-1l-1-4l-1-2l-4-5l-1-2l1-4l1-3v-3l-2-5l-4-3h-2l-1,2v1
			l-1,3l-2,3l-3,4l-3,3l-3,1l-4-2l-3-1h-8l-3-1l1-3h1l5,2v-3v-3l1-3v-3l-2-2l-2-1l-2-1h-2l-4,2l-10,12l-1,1l-2,1h-1l-4-1h-4h-2l-2-1
			v-2l1-3v-3l-1-2h-1h-4l-6,3l-7,4l2,1l-1,2l-1,1v2l1,2l3,3l1,2l-1,4l-2,1h-6l-2-1l-5-3h-1v-1l-1-1l-1-1v-4v-3v-1l1-1l-1-3h2l2-5
			l-1-4l-3-3l-3-2l-1-1l1-4l1-3l-1-2l-1-1l-3-4l-1-4l-1-1h-1l2-4l5-2h5l7-2l4-3l4-7l13,2h5l4-1l5-3l3-1h4l6-7l2-4l3-3l3-2h7l3-1l5-5
			h3l7,1h3v1v2l2,2l5,4h3l1-1l5,3v4l-2,3h1l23-2l2-1l3-2l1-3l1-3l1-4l2-1h5l3-1l2-2l3-1l2,2h2l8-1l5,1l1,1l2,4l1,1l2,1l9,6H372"/>
	</g>
	<g id="nl-ut">
		<path fill="#DDDDDD" stroke="#FFFFFF" d="M307,277l2,2l6,3v2l-1,3v2v2l5,3v2l-1,1l-1,1l1,2l3,1h2l1,1l1,2h1l1,1l1,1v1v1v2v1h-2
			l-1,2v2l-1,1l-1,1v1l4,2l1-1l1-1h1l1-1v-1l1-1l-1-2h2l1,4v1l1,1l-1,5l2,6l1,3l3,3l1,1v1v1v1v3v1l-4-1l-10-5l-5-2l-2,1l-2,2h-1h-2
			l-3-1l-3,1l-3,2l-3,1l-7-4l-2,1l-2,1l-3,1h-2l-1-1l-2-1l-2-1l-1-3l-2-1l-2-1l-1,1l-1,1h-3l-1,1l-2,3h-1l-5-1l-4,3l-4,3l-1,1l-3-1
			l-1,2l-2-4l-4-6l-1-1v-1h1l1-1l1-1v-2l-6,1v-2l3-6l5-2l1-2h-5l-2-7l-2-1l-2-1l1-1l3-3l1-1l1,1h1l2,1l1-1v-1l-1-2l-1-2l1-1l-6-5
			l-2-1l-1-1l-1-1l-1-3l5-2l3-1l2-2l2-1l5-1l2-3l1-1h1h3l3-2h1l1,1l1,1l2-1h5l-4,2l-1,1l1,1v1v1h1l1,1v1l1,1l-2,2l-1,5v3l1,4l3-1
			l3-1l4-1l7,1l3-2v-2l1-2l1-1v-3l3-6l2-4h1l1-1h7H307"/>
	</g>
	<g id="nl-zh">
		<path fill="#DDDDDD" stroke="#FFFFFF" d="M236,289l1,3l1,1l1,1l2,1l6,5l-1,1l1,2l1,2v1l-1,1l-2-1h-1l-1-1l-1,1l-3,3l-1,1l2,1l2,1
			l2,7h5l-1,2l-5,2l-3,6v2l6-1v2l-1,1l-1,1h-1v1l1,1l4,6l2,4l1-2l3,1l1-1l4-3l4-3l5,1h1l2-3l1-1h3l1-1l1-1l2,1l2,1l1,3l2,1l2,1l1,1
			l-3,6l-1,1l-4,8v1l1,1l-1,1l-1,1l-9,4h-4l1,1v1l-1,1l1,2h-3l-7-1h-3l-5,5l-3,1h-7l-3,2l-3,3l-2,4l-6,7h-4l-3,1l-5,3l-4,1h-5l-13-2
			l-4,7l-4,3l-7,2h-5l-5,2l-3-1l-3-2l-3-1l-2,1v1v-1v-2v-2l2-2l2-1h4l-1-1l-3-3l-9-2l-2-3l-1-6l-2-5l-3-2l-3-3l-2,2l-4,1h-3l-2,1h-1
			l-1,1h-1l-1-6l4-3l7-2l2-1l2-1l4,1l4,2h1h1l2-2l-1-1l-3-5h-1l-1-1v-2v-1l1-1v-1l1-1l-1-3l-2-8l-2-3l1-2l1-1l6,1h5l4-3l18-22l15-22
			l11-21l6,2v1h3l2-1h3l-5,9v1l-1,1v1v3l-2,3v1h2l1,1l1,1h3l6-2l2-1l5-2l1,1l1,3v1l2,1L236,289"/>
	</g>
	<g id="nl-nh">
		<path fill="#DDDDDD" stroke="#FFFFFF" d="M273,146l6,12v5l1,13l1,3l2,1l1,1l2,1l1-1l2-1l1-1h2h2l6,3l1,1v2l1,3v2l-4,2l-2,2l-1,5
			l-2,2l-8,5l-2,1h-2l-2-2l-1-1l-3-1h-4l-2,4v5l2,6l4,9l1,5l-3,3l1,1v2h-1l-2,1l1,1l1,2l1,2l2,1l-1,2l-1,2l-2,1h-1l-1,2l-1,3l-1,2
			l-2-1v1l-1-1h-1h-2v1l-1,1l-1,1l8,4l2,1l6,1h2l7,5l2,1h3h5h3l9,6h-1h-7l-1,1h-1l-2,4l-3,6v3l-1,1l-1,2v2l-3,2l-7-1l-4,1l-3,1l-3,1
			l-1-4v-3l1-5l2-2l-1-1v-1l-1-1h-1v-1v-1l-1-1l1-1l4-2h-5l-2,1l-1-1l-1-1h-1l-3,2h-3h-1l-1,1l-2,3l-5,1l-2,1l-2,2l-3,1l-5,2l-4,3
			l-2-1v-1l-1-3l-1-1l-5,2l-2,1l-6,2h-3l-1-1l-1-1h-2v-1l2-3v-3v-1l1-1v-1l5-9h-3l-2,1h-3v-1l-6-2l1-2l8-22l1-6v-2l2-5l6-40l2-10v-3
			l1-6l6-14l1-7v-4v-5l1-4l2-2l7,2l2-2l1,2l-2,6l3,4l5,2l5-1l2-1l6-5l2-1l5-1l5-2l13-11v1l1,2v1l-7,6l-6,3l-5,2L273,146"/>
		<path fill="#DDDDDD" stroke="#FFFFFF" d="M251,107v1h3l-1,3l-2,3l-3,5l-6,5l-3,6l-4,1l-4-2l-3-5l1-6l2-6l3-5l6-5l3-6l3-5h4l1,1v1
			v1l-1,1l2,3l1,4v3L251,107"/>
	</g>
	<g id="nl-dr">
		<path fill="#DDDDDD" stroke="#FFFFFF" d="M522,162l-1,4l-1,7l-2,22v7l-3,5l-4-2l-2-1l-6,1l-7-2l-12,1l-4,1l-2,1h-1l-1-2v-2l-1-1
			l-9-4h-1l-4,1l-6,3l-2,2v1l1,6l-6-3h-1l-1,1h-1h-1l-1-1l-1-1l-1,1l-3,1h-1h-1l-1-3l-1-2l-2-2l-2-1l-1-2h-6h-1l-4-3l-2-1l-1,1h-1
			l-1,1h-1l-1-1l-1-2h-1l-4-11l1-3l3-1l5-5v-1l-1-2l-1-2l-1-1l-6-7l10-8l5-5v-1l2-1h3l3,1l4,3l6-4l1-1l3-6v-1l1-1l-2-3l-7-9v-2l-1-3
			v-1v-1l-4-2l-2-1v-3l3,1l1-1l2-4v-2l1-1l1-3l1-1v-1l1-2l1-2l2-2l2-2l5-4l4,2l2,1h2l2,3l2,4h1l1,1l4,6l2,3v1h1l8-3h3l1,1l1,1l4,4
			l6,6l3,3l2,2l4,5l5,5l6,8l6,8h1v1v1l-3,6l3,1l1,1l2,3L522,162"/>
	</g>
	<g id="nl-fr">
		<path fill="#DDDDDD" stroke="#FFFFFF" d="M256,83l-3,3l-4-2l6-7l8-7l8-5l6,1v1h-3l-1,1l-4,1l-10,10L256,83"/>
		<path fill="#DDDDDD" stroke="#FFFFFF" d="M418,58h1h1v-1l3,1v1v1v3v2h1v1l-2,2l-2,2v1l-1,3l-2,3l-1,3v1v1l1,1v1l-1,1l-4,6l-1,3
			l-1,4v5l1,1l2,2h1h6l2,1l4,3l1,1v3l2,1l4,2v1v1l1,3v2l7,9l2,3l-1,1v1l-3,6l-1,1l-6,4l-4-3l-3-1h-3l-2,1v1l-5,5l-10,8l-5,2h-3l-2,1
			v1v1l-2,2l-5-1h-1l-1-1l-1-2l-1-1l-1,1l-3,1l-1,1v1l-1,1l-1,1l-3,2h-1h-1l-3-1h-1l-1-1l-5,2l-1-3l-3-3l-2-1h-2h-1h1l-1-1l-9-2h-2
			h-2l-3,2l-1,1h-2h-2l-3-2l-2-1h-8l-3-1l-3-2l-1-1l-1-1h-1v-2v-2h1v-1l2-2l2-1l1-2l-2-3l2-2l1-4l-1-3l-1-2l1-3v-2l-1-3l-1-1l-1-2
			l-1-2l-1-4l-11,7l-12,11v-1l-1-2v-1l12-11l2-2l2-2l6-2l3-1l2-6l4-14l2-6l4-5l3-2l5-2l2-3l2-3l2-2l2-1l6-1l5-4l20-8l4-3h3l8-5h12
			l14-1l-1,3l-1,3l1,4l2,1l2,1h1l1,1v1H418"/>
		<path fill="#DDDDDD" stroke="#FFFFFF" d="M318,45l-6,3l-4,1l-18,8h-3l-2-4l2-3l6-3l3-2h2l17-3l2-2l2-1l18-3l-3,4l-3,1h-7v1v1v1
			l-1,1H318"/>
		<path fill="#DDDDDD" stroke="#FFFFFF" d="M378,31l5,3l-12,3h-13l-3,1l-6,2h-3l-2-3v-3l2-2l2,1L378,31"/>
		<path fill="#DDDDDD" stroke="#FFFFFF" d="M408,32l-3,4v-2v-1l-1-3l3-3l5-2l3-1l12-1l4,1v1h-2L408,32"/>
	</g>
	<g id="nl-ge">
		<path fill="#DDDDDD" stroke="#FFFFFF" d="M485,312h-1l-2,1l-2,2l-1,1l-1,3l-1,1l-1,1h-2l-1,1l-1,2l1,3l2,1l2,1l8,5l4,3v1l1,1l-1,3
			l-1,1l-1,1l-3,5l-3,3l-3,2l-11,1l-13,4l-6,5h-2h-2l-8-2l1,5l-1,2l-4,1l-1-3l-2-1l-5-1v-1l-1-2l-1-1h-1l-4,1l-4-2l-4-3l-4-2l-5,2
			l2,1l4,5l2,3l-2-1l-3-1l-4-1l-5,2l-2,1l-2,2l-3,1l-5,1l-2,1v2l3,2l1,4v4l-2,2h-1l-3-2l-2-3l-1-1h-1h-1l-1,1v2h-13l-9-6l-2-1l-1-1
			l-2-4l-1-1l-5-1l-8,1h-2l-2-2l-3,1l-2,2l-3,1h-5l-2,1l-1,4l-1,3l-1,3l-3,2l-2,1l-23,2h-1l2-3v-4l-5-3l-1,1h-3l-5-4l-2-2v-2v-1
			l-1-2l1-1v-1l-1-1h4l9-4l1-1l1-1l-1-1v-1l4-8l1-1l3-6h2l3-1l2-1l2-1l7,4l3-1l3-2l3-1l3,1h2h1l2-2l2-1l5,2l10,5l4,1v-1v-3v-1v-1v-1
			l-1-1l-3-3l-1-3l-2-6l1-5l-1-1v-1l-1-4h-2l1,2l-1,1v1l-1,1h-1l-1,1l-1,1l-4-2v-1l1-1l1-1v-2l1-2h2v-1v-2v-1v-1l-1-1l-1-1h-1l-1-2
			l-1-1h-2l-3-1l-1-2l1-1l1-1v-2l-5-3v-2v-2l1-3v-2h5l11-2l1-2l4-9l6-7l4-3l7-3l4-2l4-3l3-3l5-7l2-4l2-5v-4h1h1l2,3l2,5h1l1,1l4-2
			l4-3l4-2l1,1h1l1,2l1,2l2,2l1,1l1,1l1,3l1,3l2,3v1l1,1l-1,2l-1,5l-4,1h-1v1v1l1,1l-2,2l-1,4v2h1l1,2v1l3,1l2,6v2v1h1l1,1l1,1v1
			l-1,1l1,1l1,1h1v-1l2-1h1l9,2l8-1h1l2-1l4-2h4l1,2l6,9l3,3h3h5h4h1v1l1,1v1h1l4-1h1h1l1,1v1v2v1l-1,3l12,3L485,312"/>
	</g>
	<g id="nl-gr">
		<path fill="#DDDDDD" stroke="#FFFFFF" d="M496,40l5,17l3,2l1,1l1,1l1,1l4,1l4,3h3l1,1h1h2l1-1h1v1l-1,1h-1v1l1,2v3l4,3l9,2h1l1,6
			v3l-1,3l-1,4l-1,5l-1,1v3l1,1l1,1v2l1,15v7l-1,7l-3,7l-10,16l-1,2l-1-1l-2-3l-1-1l-3-1l3-6v-1v-1h-1l-6-8l-6-8l-5-5l-4-5l-2-2
			l-3-3l-6-6l-4-4l-1-1l-1-1h-3l-8,3h-1v-1l-2-3l-4-6l-1-1h-1l-2-4l-2-3h-2l-2-1l-4-2l-5,4l-2,2l-2,2l-1,2l-1,2v1l-1,1l-1,3l-1,1v2
			l-2,4l-1,1l-3-1l-1-1l-4-3l-2-1h-6h-1l-2-2l-1-1v-5l1-4l1-3l4-6l1-1v-1l-1-1v-1v-1l1-3l2-3l1-3v-1l2-2l2-2v-1h-1v-2v-3v-1v-1l-3-1
			v1h-1h-1h-1v-1l-1-1h-1l-2-1l-2-1l-1-4l1-3l1-3h11l1,1l2,2h1h2l3-3l18-5l29-5l13,2l2,1L496,40"/>
		<path fill="#DDDDDD" stroke="#FFFFFF" d="M462,18v1l-2-1v-1l1-1h3l-1,1L462,18"/>
		<path fill="#DDDDDD" stroke="#FFFFFF" d="M445,14l7,3h-1v1h-1l-4-1l-2-2v-1H445"/>
	</g>
	<g id="nl-li">
		<path fill="#DDDDDD" stroke="#FFFFFF" d="M382,385l-1,1v2h1h4l1,1l3,2l1,1l-1,6l3,4l8,3l-1,5l-1,3v2l9,12l5,5l1,7v4v4l-1,4v3l2,3
			l-1,1l-1,5v2l-1,2l-4,2l-1,1l-6,12l-3,3l-1,3l-1,4l-1,4l1,4l3,1l6-4l3,1l-1,1l-3,2l3,2l-2,3l-7,4l-11,9l-2,2l-2,5l-2,1l-2,1l-2-2
			l-1-2l-2-1l-4,2l1,5l2,5v5h2l3-2h2h1l4,1h4v1v1l-1,2v3l1,1l1,2l3,1l4,2l-1,1v1v1l1,4v2l-1,2l-2,1h-2l-2,1l-1,2v2v1v3l-2,1h-2v3
			l1,1l2,1v1v3h-2h-9h-2l-1-1h-11l-1-1l-3-2l-1-1l-1,1l-1,2l-1,1h-1h-2l-2-1l1-5l1-2l-2-1l-3-1l-1-1l-2-1l-2-3v-4l9-10l1-1l2-1l2-2
			l2-5l1-2l-1-1h-1l-3,1l5-8l2-5l-2-2l1-3v-2l1-1l2,2l1-2v-1l1-3v-1l-1-2l2,1l1-1h1l2-1l-3-3v-2l2-2v-1l-2-2l-2-1l-3,1l-2-1l-3-4
			l-2-1h-1l-6,1h-2l-1-1l-1-1l-2-1l-7-3l-2-1l2-1l3-1h1h1l1-1l1-2l1-6l2-4l1-2l2-3l13-4l8-3l4-1l3-2l5-4l-3-6l-5-6l-3-12l-1-12h4
			l5,2h1l4-1l6-2l1,1l3,2l2-2v-2l-1-1l-1-6l-1-1v-1l-2-4l-2-1l-1-1v-1v-2l-2-2l-1-7l-2-2h-5l-2-2l-1-2v-2l-2-2v-2l1-1h1h1l1,1l2,3
			l3,2H382"/>
	</g>
	<g id="nl-ov">
		<path fill="#DDDDDD" stroke="#FFFFFF" d="M478,206l-2,2l1,2v2l-1,2v1l1,2l4,3l-7,4h-2l2,3v4v3l1,3l3,3l3,2l10,1l6,3h4h3l3-1l1-1
			l1-1l1-1l7,13l2,5l-1,7l-3,6v3l-1,4l2,4v2h1l-1,1l-5,4l-2,1l-2,5l-3,2l-5,2l-3,3l-2,6l-2,1l-7,1l-2-1l-12-3l1-3v-1v-2v-1l-1-1h-1
			h-1l-4,1h-1v-1l-1-1v-1h-1h-4h-5h-3l-3-3l-6-9l-1-2h-4l-4,2l-2,1h-1l-8,1l-9-2h-1l-2,1v1h-1l-1-1l-1-1l1-1v-1l-1-1l-1-1h-1v-1v-2
			l-2-6l-3-1v-1l-1-2h-1v-2l1-4l2-2l-1-1v-1v-1h1l4-1l1-5l1-2l-1-1v-1l-2-3l-1-3l-1-3l-1-1l-1-1l-2-2l-1-2l-1-2h-1l-1-1l-4,2l-4,3
			l-4,2l-1-1h-1l-2-5l-2-3h-1h-1v-4l-2-7l-1-4l-1-2l7-3h1h1l2,1h1l6-3l4-2l-3-3l-2-1l-5-2h-1v-1l1-1v-1l1-1l-1-5l-2-6l-1-1l-1-2
			l-6-5l-9-5l5-2l1,1h1l3,1h1h1l3-2l1-1l1-1v-1l1-1l3-1l1-1l1,1l1,2l1,1h1l5,1l2-2v-1v-1l2-1h3l5-2l6,7l1,1l1,2l1,2v1l-5,5l-3,1
			l-1,3l4,11h1l1,2l1,1h1l1-1h1l1-1l2,1l4,3h1h6l1,2l2,1l2,2l1,2l1,3h1h1l3-1l1-1l1,1l1,1h1h1l1-1h1l6,3l-1-6v-1l2-2l6-3l4-1h1l9,4
			l1,1v2l1,2H478"/>
	</g>
	<g id="nl-fl">
		<path fill="#DDDDDD" stroke="#FFFFFF" d="M369,218l2,9v4l-1,5l-2,4l-3,4l-3,4l-4,1h-4l-6,3l-3,1l-1,1l-3,4l-2,1h-2h-2l-3,2l1,7
			l-1,5l-2,3l-5,2h-8l-3-1l-8-6l-4-2l-8-3l-2-1l-6,1l-3-2v-2l-1-3l-1-3l2-1l4-4l7-4l6-5l9-4l6-5l4-2l2-2l3-7l1-1h2h2l5-6l2-1l7-3
			l3-1l3,3L369,218"/>
		<path fill="#DDDDDD" stroke="#FFFFFF" d="M356,163l2,1l3,3l1,3l9,5l6,5l1,2l1,1l2,6l1,5l-1,1v1l-1,1v1h1l5,2l2,1l3,3l-4,2l-6,3h-1
			l-2-1h-1h-1l-7,3l-2-1l-2-1l-16,1h-2l-1-2l-3-6l-2-1l-2-3v-8v-9l1-5l3-5l3-4l4-3l3-1h1H356"/>
	</g>
	<g id="nl-ze">
		<path fill="#DDDDDD" stroke="#FFFFFF" d="M107,463l3,1h5l5,2l3-1l12-5l1-2l1-4l1-2h3l3,1l2,2v1l2,3l1,1l1,1h3l2,1l5,1l2-4h1h2l3,2
			l-1,5l-1,2l-5,7l-6,5l-15,7l-6,5l-3,1h-15l-1-1l-2-2v-2v-2l-1-3l-2-1l-15-5l-3-1h-3l-5,1h-2l-2,1l-2,1v3l1,2l-1,2l-6,1l-4-1l-3-1
			l-3-4l-2-5v-4v-5l-1-8l20-6l2-2h2l8,5l12,3L107,463"/>
		<path fill="#DDDDDD" stroke="#FFFFFF" d="M170,426l-1,4h-5l-5-3h-2l-4,1l-1-1l-3-2l-10-9l6-3l4-1l11,1l3,1l3,2l3,4l1,1l1,2
			L170,426"/>
		<path fill="#DDDDDD" stroke="#FFFFFF" d="M151,443l2,2l3,1l7-1l2,1h3h4l1-1l1,3l-1,1v1v3v4l1,1l1,1v1h-2h-1l-1-3v-2v-2v-2l-2-1
			l-1,2l-3,1h-11l-3-1l-2-2l-7-6h-2l-5-1l-2,1l-4,7l-1,2l-2,1l-4,1l-2,1h-1l-2-1l-3-3l-8-4l-4-5h-2l-5,2h-3l-7-1l-3-2l-1-2l-2-4
			l-2-2l-4-4l-1-2l-1-3l2-2l13-8l33-3h3l2,1l2,2l1,3l1,2l-1,1l-2,1l-1,1v1l12,2l6,2l5,5l2,3L151,443"/>
		<path fill="#DDDDDD" stroke="#FFFFFF" d="M162,406l3,1l-2,4h-5l-1-1l-1-1l-1-1l-1-2v-1v-1l2-1l3,1L162,406"/>
		<path fill="#DDDDDD" stroke="#FFFFFF" d="M142,394l1,1v1l2,1l5,2l2,1l1,3l-2,2l-2,2l-2,1l-10,2h-2l-4-2l-3-2l-1-3l-1-2l-2-2l-5-2
			l-1-1v-1l-2-1h-1l-3,4l-1,1h-6l-2-1l-2-2l1-7l4-3l11-1h2l2,1h12l2,1l2,1L142,394"/>
	</g>
</g>
</svg>
